<svg width="319" height="612" viewBox="0 0 319 612" fill="none" xmlns="http://www.w3.org/2000/svg">
<path d="M215.915 33.6278C214.735 33.0377 213.805 32.0568 212.78 31.2234C209.992 28.9518 206.378 27.7201 202.787 27.8087C200.493 27.8603 198.243 28.4356 195.972 28.7527C190.263 29.5492 184.171 28.5019 178.972 26.0165C176.184 24.6815 174.355 21.5765 174.539 18.4936C174.679 16.045 175.977 13.7735 177.681 12.0034C179.377 10.2333 181.457 8.88363 183.522 7.55608C185.506 6.28753 187.49 5.0116 189.474 3.73567C191.119 2.681 192.778 1.61159 194.607 0.940434C197.882 -0.254365 201.481 -0.114234 204.94 0.291408C206.526 0.483165 208.111 0.726551 209.623 1.23545C215.17 3.11615 219.02 8.49274 220.332 14.2086C221.645 19.9171 220.775 25.9132 219.27 31.5701C218.253 32.4182 217.095 34.2252 215.915 33.6278Z" fill="#1D253C"/>
<path d="M306.38 511.68L244.155 517.064L247.739 558.557L309.965 553.166L306.38 511.68ZM191.665 511.724H129.203V553.373H191.665V511.724ZM181.022 22.2624C184.385 19.8286 185.809 16.554 188.641 13.7366C190.647 11.7379 193.627 10.7865 196.422 11.2437C198.561 11.5978 200.493 12.7114 202.425 13.685C204.365 14.6659 206.467 15.5509 208.635 15.3887C210.796 15.2264 213.016 13.3752 213.65 11.2954C214.307 9.18603 215.657 7.03244 217.795 6.48667C219.956 5.93352 222.287 7.29058 223.349 9.2524C224.411 11.2069 224.396 13.5965 223.865 15.7574C223.142 18.7297 220.805 21.2078 218.503 23.2138C219.256 31.7766 223.629 40.1328 228.305 47.3458C224.323 52.3389 219.315 56.5207 213.687 59.552C210.582 61.2188 206.895 61.7277 203.495 60.7689C203.178 57.3836 201.909 54.0869 199.888 51.3506C199.556 50.9007 199.18 50.4508 198.656 50.2591C198.007 50.0231 197.299 50.2443 196.621 50.3697C192.889 51.0925 189.054 49.0274 186.657 46.0773C184.26 43.1345 183.036 39.4174 181.959 35.774C180.757 31.7249 179.577 27.4104 178.883 23.2507C179.628 23.059 180.373 22.7345 181.022 22.2624ZM177.121 126.121C176.811 132.309 175.439 137.479 175.439 143.682C173.949 143.97 171.995 143.734 170.151 143.195C169.849 145.091 169.31 146.89 168.226 148.491C167.193 149.995 165.342 151.242 163.646 150.615C161.507 149.811 161.315 146.912 161.507 144.648C161.706 142.406 161.964 140.105 162.281 137.767C161.47 136.889 160.659 135.975 159.818 135.112C159.545 134.817 159.272 134.529 158.985 134.286C157.996 136.366 157.016 138.46 156.035 140.562C155.201 142.34 154.346 144.161 153.025 145.622C151.713 147.089 149.839 148.188 147.863 148.107C147.118 148.085 146.284 147.805 145.93 147.141C145.65 146.617 145.746 145.976 145.849 145.386C146.137 143.653 146.425 141.919 146.727 140.179C145.628 141.764 144.537 143.35 143.438 144.921C142.796 145.858 142.132 146.809 141.218 147.466C140.281 148.122 139.042 148.439 138.009 147.967C136.933 147.48 136.343 146.249 136.291 145.069C136.225 143.889 136.579 142.738 136.947 141.624C139.042 135.186 141.306 128.828 143.725 122.515C139.669 127.471 135.598 132.42 131.541 137.376C130.804 138.254 129.97 139.213 128.827 139.338C127.205 139.515 125.87 137.811 125.833 136.167C125.781 134.529 126.615 133.025 127.426 131.609C129.218 128.474 131.025 125.347 132.825 122.213C135.974 116.711 139.706 110.737 145.812 109.033C148.246 108.347 150.828 108.428 153.35 108.517C155.762 108.612 158.173 108.701 160.578 108.797C161.603 108.834 162.636 108.871 163.631 108.612C164.479 108.391 165.268 107.941 166.095 107.654C170.829 105.987 173.639 108.834 177.674 111.821C178.102 112.138 177.792 116.526 177.748 117.286C177.637 119.491 177.069 121.903 176.958 124.108C176.929 124.698 177.15 125.531 177.121 126.121Z" fill="#DCB35E"/>
<path d="M231.204 476.507C228.032 453.924 224.861 431.334 222.884 408.632C218.208 354.925 220.178 300.673 209.601 247.548H206.327C193.737 286.461 181.915 326.39 187.077 366.379C193.973 419.953 198.384 472.2 196.333 526.342H124.719C113.87 461.292 104.821 394.022 115.861 328.994C124.417 278.643 151.536 223.881 172.334 176.119L265.484 176.694C280.699 206.225 287.758 238.698 285.921 270.847C284.697 292.479 279.519 314.125 282.462 335.639C285.309 356.393 295.568 375.871 301.136 396.234C312.229 436.865 304.337 479.693 313.438 520.671C288.259 522.935 263.139 525.76 237.952 528.002C235.681 511.673 233.475 492.711 231.204 476.507Z" fill="#AED8FF"/>
<path d="M228.91 44.5211C232.657 44.3514 237.982 47.272 241.411 48.6512C250.143 52.1766 258.891 56.1519 265.609 62.3103C275.795 71.6474 280.227 85.1442 280.648 98.2575C281.068 111.371 277.882 124.337 274.703 137.133C271.495 150.098 268.7 163.706 265.491 176.672L173.072 177.682C174.193 157.894 175.314 138.106 176.435 118.326C176.715 113.34 177.003 108.34 177.954 103.42C181.044 87.6076 190.853 73.6387 200.456 60.1346C200.279 60.3853 204.719 59.7216 205.154 59.5962C207.234 58.984 209.292 58.3866 211.298 57.5901C218.496 54.758 224.905 50.6131 228.91 44.5211Z" fill="#F1F1F1"/>
<path d="M190.684 150.748L190.632 157.459L117.13 153.255L31.1118 141.779L0.246174 65.7989C-0.660989 63.5641 1.05746 61.1377 3.4618 61.2557L81.1163 65.1203C83.5354 65.231 85.6374 66.7945 86.4634 69.0735L114.578 146.278L190.684 150.748Z" fill="#1D253C"/>
<path d="M276.038 109.394C273.486 123.71 267.689 141.034 261.051 154.288C254.421 167.548 243.181 179.629 227.914 184.925C216.822 188.767 204.571 188.782 192.668 188.59C156.713 188.03 114.276 187.764 82.8937 170.159C72.3765 164.259 64.1973 151.618 57.058 142.782C54.6021 139.736 52.2051 136.653 49.8007 133.578C48.7756 132.25 47.7135 130.871 47.3964 129.285C47.0719 127.707 47.7062 125.849 49.3287 125.126C50.9587 124.396 53.3925 125.495 53.2229 127.095C53.54 124.971 52.5149 122.869 51.2684 121.032C50.0294 119.189 48.5248 117.455 47.7357 115.427C46.9465 113.399 47.0055 110.936 48.6502 109.365C50.3023 107.794 53.7687 107.838 54.8012 109.778C52.7582 107.779 55.2437 104.276 58.2823 104.025C61.3136 103.767 64.0498 105.574 66.196 107.491C64.2637 105.22 65.1119 101.525 67.8924 100.094C70.6728 98.6632 75.039 100.507 76.8755 102.845C87.813 116.777 100.594 132.206 111.724 146.02C146.417 151.596 182.571 155.829 217.795 157.171C225.709 139.331 233.623 121.482 241.529 103.641C252.091 105.847 265.373 107.654 276.038 109.394Z" fill="#DCB35E"/>
<path d="M220.266 23.5162C217.183 32.1085 211.947 39.8304 205.073 45.8339C204.97 45.9298 204.852 45.9666 204.741 45.9888C203.377 48.4226 201.083 50.3328 198.421 51.1662C195.411 52.1103 191.989 51.6456 189.356 49.9051C186.849 48.253 185.167 45.5905 183.994 42.8174C182.829 40.0443 181.937 37.7358 180.897 34.9111C182.401 33.6056 184.688 31.5184 186.192 30.213C186.945 29.5566 187.704 28.9002 188.582 28.4429C189.673 27.8677 190.898 27.6243 192.107 27.3883C195.78 26.6729 199.468 26.0238 203.155 25.4264C205.132 20.6841 207.839 16.2737 211.209 12.3648C211.755 11.7305 212.677 12.6598 212.131 13.2941C208.761 17.203 206.076 21.6577 204.151 26.4442C205.589 30.4933 206.659 35.0586 206.415 39.2772C206.342 40.6638 206.157 42.0504 205.788 43.3853C211.681 37.7727 216.247 30.8399 218.998 23.1696C219.285 22.3804 220.546 22.7197 220.266 23.5162Z" fill="#1D253C"/>
<path d="M318.977 596.636C316.802 583.405 312.273 566.943 310.127 553.749C309.979 552.856 309.175 552.229 308.276 552.303L248.705 557.466C248.233 557.503 247.806 557.739 247.511 558.108C238.505 569.443 227.501 579.201 215.856 587.742C210.007 592.041 204.166 596.658 197.631 599.881C194.689 601.342 191.739 602.684 188.914 604.218C185.529 606.04 186.782 611.18 190.625 611.247C202.307 611.446 213.982 611.217 225.621 610.081C241.64 608.518 257.688 605.243 272.336 598.377C278.273 595.596 283.952 592.108 290.538 590.869C291.88 590.618 293.348 590.478 294.535 591.016C297.456 592.329 296.232 595.854 296.63 598.79C296.748 599.704 297.581 600.346 298.496 600.272L317.414 598.635C318.417 598.546 319.139 597.632 318.977 596.636ZM196.901 597.455C195.876 584.083 192.778 567.29 191.775 553.963C191.709 553.055 190.964 552.362 190.05 552.362H130.258C129.786 552.362 129.336 552.561 129.019 552.901C119.07 563.425 107.262 572.194 94.9303 579.702C88.7277 583.471 82.5177 587.565 75.725 590.22C72.6716 591.414 69.6183 592.506 66.6682 593.782C63.1354 595.316 63.9393 600.545 67.7671 600.936C79.3832 602.138 91.0435 602.92 102.733 602.795C118.826 602.618 135.096 600.744 150.282 595.168C156.433 592.904 162.392 589.917 169.059 589.253C170.424 589.121 171.899 589.106 173.035 589.74C175.83 591.304 174.311 594.711 174.443 597.669C174.488 598.591 175.262 599.306 176.184 599.306H195.168C196.171 599.306 196.975 598.458 196.901 597.455ZM67.2361 148.395C61.6529 141.167 56.4755 133.644 51.7332 125.849C51.2907 125.126 52.4264 124.469 52.8616 125.185C57.5449 132.892 62.6486 140.334 68.158 147.466C68.6669 148.129 67.7449 149.059 67.2361 148.395ZM73.21 143.092C65.8864 132.368 59.1822 121.239 53.1345 109.748C52.7362 109.003 53.872 108.347 54.2629 109.092C60.3106 120.575 67.0148 131.712 74.3385 142.428C74.8179 143.129 73.6821 143.785 73.21 143.092ZM80.4305 134.264C74.1688 125.878 68.3718 117.153 63.0616 108.14C62.6339 107.41 63.7623 106.747 64.1901 107.477C69.5003 116.489 75.2973 125.214 81.5589 133.6C82.0604 134.279 80.9246 134.928 80.4305 134.264ZM194.504 511.592H122.293C121.452 511.592 121.452 510.279 122.293 510.279H194.504C195.345 510.279 195.345 511.592 194.504 511.592ZM308.785 502.69C303.578 503.412 298.371 504.113 293.164 504.792C274.585 507.196 255.97 509.268 237.318 511.009C236.477 511.09 236.484 509.777 237.318 509.703C242.547 509.209 247.776 508.7 252.998 508.155C271.517 506.237 290 503.995 308.438 501.421C309.264 501.31 309.618 502.572 308.785 502.69ZM163.764 129.514C163.675 130.488 163.572 131.461 163.454 132.435C163.211 134.367 162.901 136.285 162.51 138.195C162.348 139.021 161.079 138.667 161.249 137.848C161.854 134.854 162.282 131.83 162.51 128.784C162.532 128.511 162.554 128.253 162.518 127.98C162.525 128.002 162.503 127.921 162.488 127.855C162.459 127.899 162.4 127.943 162.37 127.987C161.987 128.518 161.706 129.182 161.419 129.772C160.777 131.1 160.239 132.464 159.781 133.866C159.523 134.669 158.262 134.323 158.52 133.519C159.088 131.764 159.796 130.045 160.644 128.4C160.984 127.744 161.345 126.815 162.119 126.557C162.783 126.335 163.41 126.689 163.675 127.309C163.971 127.995 163.823 128.799 163.764 129.514ZM175.8 120.472C172.843 127.545 171.051 135.068 170.549 142.723C170.498 143.557 169.185 143.564 169.244 142.723C169.753 134.95 171.53 127.309 174.539 120.125C174.864 119.358 176.132 119.698 175.8 120.472ZM153.335 122.294C151.278 128.504 149.22 134.706 147.155 140.916C146.889 141.713 145.628 141.374 145.894 140.57C147.951 134.36 150.016 128.15 152.074 121.947C152.34 121.143 153.601 121.49 153.335 122.294ZM249.045 75.431C246.434 84.9968 243.646 94.5109 240.681 103.973C240.43 104.777 239.169 104.431 239.42 103.627C242.385 94.1643 245.173 84.6501 247.776 75.0844C247.997 74.2731 249.266 74.6197 249.045 75.431ZM277.381 95.7131L276.584 108.421C276.532 109.262 275.22 109.262 275.271 108.421L276.075 95.7131C276.127 94.8723 277.432 94.8723 277.381 95.7131Z" fill="#1D253C"/>
</svg>
