<svg width="46" height="46" viewBox="0 0 46 46" fill="none" xmlns="http://www.w3.org/2000/svg">
<path d="M23 0C10.3178 0 0 10.3178 0 23C0 35.6822 10.3178 46 23 46C35.6822 46 46 35.6822 46 23C46 10.3178 35.6822 0 23 0ZM4.6 23C4.6 20.9323 4.9588 18.9474 5.5913 17.0913L9.2 20.7L13.8 25.3V29.9L18.4 34.5L20.7 36.8V41.2413C11.6403 40.1028 4.6 32.3656 4.6 23ZM37.559 34.2079C36.0571 32.9981 33.7801 32.2 32.2 32.2V29.9C32.2 28.68 31.7154 27.51 30.8527 26.6473C29.99 25.7846 28.82 25.3 27.6 25.3H18.4V18.4C19.62 18.4 20.79 17.9154 21.6527 17.0527C22.5154 16.19 23 15.02 23 13.8V11.5H25.3C26.52 11.5 27.69 11.0154 28.5527 10.1527C29.4154 9.29002 29.9 8.12 29.9 6.9V5.9547C36.6344 8.6894 41.4 15.295 41.4 23C41.3996 27.0588 40.0482 31.002 37.559 34.2079Z" fill="#1D253C"/>
</svg>
