<svg width="53" height="46" viewBox="0 0 53 46" fill="none" xmlns="http://www.w3.org/2000/svg">
<path d="M0 21.2308H2.75V28.3077H0V21.2308ZM39.4035 27.4231C41.2495 24.6277 42.35 21.3015 42.35 17.6923C42.35 7.92615 34.398 0 24.6 0C14.802 0 6.85 7.92615 6.85 17.6923C6.85 27.4585 14.802 35.3846 24.6 35.3846C28.221 35.3846 31.558 34.2877 34.398 32.4477L47.9945 46L53 41.0108L39.4035 27.4231ZM24.6 28.3077C18.7425 28.3077 13.95 23.5308 13.95 17.6923C13.95 11.8538 18.7425 7.07692 24.6 7.07692C30.4575 7.07692 35.25 11.8538 35.25 17.6923C35.25 23.5308 30.4575 28.3077 24.6 28.3077ZM0 3.53846H2.75V10.6154H0V3.53846ZM0 38.9231H9.5V46H0V38.9231Z" fill="#1D253C"/>
</svg>
