<svg width="582" height="540" viewBox="0 0 582 540" fill="none" xmlns="http://www.w3.org/2000/svg">
<path d="M481.946 1.48119C446.363 2.90476 435.93 18.096 435.215 25.4608C434.507 32.8192 460.125 84.8217 460.125 84.8217L495.226 82.6831C495.226 82.6831 501.87 69.3835 509.228 54.1922C516.573 38.9945 517.529 0.0576249 481.946 1.48119ZM336.573 204.486L307.302 90.516C306.223 86.3233 302.453 83.3916 298.124 83.3786L141.785 82.9561C135.415 82.9366 130.832 89.0794 132.658 95.1897L166.818 209.576C168.02 213.606 171.719 216.362 175.918 216.362H327.375C333.583 216.362 338.12 210.499 336.573 204.486ZM402.603 520.525L379.352 533.057C379.43 534.533 379.475 535.976 379.475 537.38H304.046C304.046 537.38 313.536 523.138 332.985 523.138C352.434 523.138 351.01 509.838 351.01 509.838L375.114 502.005C375.114 502.005 376.063 503.208 376.498 505.054L392.281 499.516C392.281 499.516 400.114 508.064 402.603 520.525Z" fill="#1D253C"/>
<path d="M405.568 264.328H305.944V261H265.967C256.743 261 250.074 252.185 252.57 243.299L260.214 216.128H326.667C332.803 216.128 337.295 210.33 335.767 204.375L331.789 188.885H161.728L167.858 209.413C169.047 213.398 172.707 216.128 176.861 216.128H207.912L199.859 246.042C197.375 255.26 204.311 264.328 213.854 264.328H124.773V304.22H405.568V264.328ZM563.064 306.112L465.812 292.819C465.812 292.819 354.332 321.791 327.291 327.959C300.256 334.135 285.071 353.129 295.511 388.269C305.944 423.416 337.256 513.641 337.256 513.641L375.452 502.473L376.804 505.593L402.246 497.019L377.207 378.298C391.741 378.298 413.27 378.298 444.946 378.298C529.385 378.298 563.779 390.174 563.064 306.112ZM284.558 144.189C282.218 138.833 279.617 133.678 276.881 128.751L284.597 144.423C284.597 144.423 284.577 144.326 284.558 144.189ZM239.524 78.8869H310.214C310.214 78.8869 329.78 87.8963 343.899 115.685C358.128 143.708 364.772 177.425 364.772 177.425H294.321C294.113 175.956 293.866 174.493 293.593 173.031L282.699 186.207C282.699 186.207 281.275 184.783 270.127 166.498C259.154 148.505 275.964 128.692 276.504 128.068C260.318 99.1874 239.524 78.8869 239.524 78.8869ZM432.713 73.7256L426.44 73.9011L433.207 64.1052L435.215 25.4608L450.16 32.3446C450.16 32.3446 449.692 49.9215 462.965 56.8053L467.236 43.2652C467.236 43.2652 479.099 41.8416 478.625 52.7686C478.521 55.1087 477.942 57.2083 477.097 59.0609C471.851 70.5015 480.055 83.8531 492.6 83.0276C493.465 82.9691 494.336 82.8586 495.226 82.6831L496.416 99.7854L465.578 105.954L465.812 93.8441L455.607 97.8743C444.069 102.431 431.679 93.5191 432.323 81.11L432.713 73.7256Z" fill="white"/>
<path d="M446.363 297.921L429.287 192.148C429.287 192.148 375.679 242.955 362.867 254.356C350.061 265.751 332.51 268.13 318.756 250.079C304.995 232.034 270.361 178.849 270.361 178.849L298.832 166.973L339.622 219.209C339.622 219.209 399.399 157.482 414.583 142.759C429.762 128.036 458.701 117.109 458.701 117.109L461.074 104.765L497.605 88.6178L502.819 107.618C502.819 107.618 526.538 121.386 536.971 127.561C547.411 133.737 550.258 147.03 552.631 165.549C555.003 184.068 566.385 285.22 567.809 304.688C569.232 324.163 516.105 354.552 457.277 296.14L446.363 297.921Z" fill="#AED8FF"/>
<path d="M275.392 127.971C272.701 131.351 258.992 150.013 269.34 166.986C270.907 169.553 272.272 171.484 273.475 173.193C274.307 174.37 275.061 175.429 275.737 176.515C275.912 176.788 276.218 176.944 276.523 176.944C276.692 176.944 276.861 176.899 277.017 176.801C277.446 176.535 277.576 175.963 277.303 175.527C276.608 174.415 275.841 173.33 274.989 172.121C273.8 170.437 272.448 168.533 270.92 166.017C261.709 150.917 272.987 134.166 276.348 129.752L283.765 144.826C283.973 145.242 284.447 145.444 284.883 145.301C285.325 145.158 285.591 144.709 285.507 144.254C285.487 144.163 283.823 134.894 282.406 129.466C281.886 127.457 282.283 126.333 282.9 126.112C283.635 125.852 284.896 126.567 285.656 128.192C286.8 130.623 287.021 131.039 288.464 133.723C289.433 135.537 290.973 138.41 293.736 143.662C300.282 156.078 293.093 168 293.015 168.117C292.742 168.559 292.885 169.124 293.314 169.397C293.749 169.664 294.321 169.527 294.588 169.092C294.913 168.572 302.421 156.176 295.381 142.798C292.605 137.539 291.064 134.666 290.089 132.846C288.64 130.142 288.451 129.791 287.333 127.405C286.046 124.669 283.81 123.811 282.27 124.37C280.898 124.864 279.747 126.593 280.612 129.934C281.145 131.942 281.698 134.497 282.198 136.902C280.742 133.938 279.221 131.032 277.648 128.211L277.362 127.626C277.329 127.568 277.277 127.535 277.238 127.483C263.705 103.413 246.882 85.1402 241.734 79.8099H310C311.963 80.7914 329.962 90.3014 343.073 116.108C355.639 140.861 362.34 170.457 363.634 176.496H307.38C306.867 176.496 306.451 176.912 306.451 177.425C306.451 177.932 306.867 178.348 307.38 178.348H364.772C365.045 178.348 365.311 178.225 365.487 178.01C365.662 177.796 365.727 177.516 365.675 177.243C365.61 176.905 358.85 143.077 344.718 115.269C330.619 87.5063 311.41 78.4123 310.598 78.0418C310.481 77.9833 310.351 77.9573 310.214 77.9573H239.524C239.153 77.9573 238.815 78.1848 238.672 78.5358C238.529 78.8869 238.613 79.2834 238.88 79.5499C239.114 79.7709 259.466 99.8114 275.392 127.971ZM334.825 213.053C336.794 210.512 337.464 207.262 336.664 204.141L332.686 188.651C332.556 188.151 332.062 187.858 331.555 187.982C331.061 188.112 330.762 188.619 330.892 189.113L334.87 204.609C335.527 207.164 334.981 209.823 333.362 211.916L334.825 213.053ZM564.422 507.491L522.781 379.052C522.664 378.681 522.788 378.298 523.061 378.057C510.444 380.105 494.706 379.929 475.524 379.591C475.92 379.786 476.141 380.228 476.011 380.67L439.038 507.491H498.099V383.043C498.099 382.536 498.509 382.12 499.029 382.12C499.536 382.12 499.952 382.536 499.952 383.043V507.491H564.422ZM375.913 379.227H349.359L380.372 501.069C380.496 501.55 380.216 502.044 379.735 502.181L376.973 502.993L377.616 504.443L401.167 496.408L375.913 379.227ZM228.122 265.277V303.291H404.644V265.251H228.115C228.115 265.264 228.122 265.27 228.122 265.277ZM226.269 303.291V265.277C226.269 265.27 226.276 265.264 226.276 265.251H125.697V303.291H226.269ZM213.854 263.398H305.021V261.929H265.967C261.274 261.929 256.964 259.784 254.136 256.04C251.302 252.302 250.412 247.57 251.679 243.052L258.992 217.051H208.823L200.749 246.289C199.644 250.398 200.489 254.694 203.083 258.081C205.67 261.461 209.596 263.398 213.854 263.398ZM575.453 538.504C575.362 538.537 575.258 538.55 575.167 538.55C574.777 538.55 574.413 538.303 574.29 537.906L565.027 509.344H499.952V538.335C499.952 538.849 499.536 539.265 499.029 539.265C498.509 539.265 498.099 538.849 498.099 538.335V509.344H438.498L430.178 537.88C430.061 538.283 429.69 538.55 429.287 538.55C429.203 538.55 429.118 538.537 429.027 538.511C428.533 538.368 428.254 537.854 428.397 537.36L436.665 509.019C436.522 508.857 436.424 508.649 436.424 508.415C436.424 507.999 436.711 507.654 437.094 507.543L474.243 380.15C474.315 379.884 474.503 379.689 474.744 379.578C474.087 379.565 473.437 379.552 472.781 379.539C463.992 379.39 454.911 379.227 444.946 379.227H406.491V537.62C406.491 538.134 406.081 538.55 405.568 538.55C405.054 538.55 404.644 538.134 404.644 537.62V379.227H377.811L403.149 496.824C403.247 497.286 402.987 497.748 402.545 497.897L377.415 506.471C377.311 506.503 377.213 506.516 377.116 506.516C376.758 506.516 376.42 506.308 376.264 505.97L375.179 503.513L337.516 514.531C337.425 514.557 337.34 514.57 337.256 514.57C336.866 514.57 336.515 514.323 336.378 513.946C336.066 513.043 304.943 423.299 294.62 388.536C289.602 371.628 290.206 357.64 296.44 346.966C302.206 337.086 312.522 330.384 327.083 327.056C340.941 323.897 374.958 315.368 404.644 307.854V305.143H228.122V537.62C228.122 538.134 227.706 538.55 227.192 538.55C226.685 538.55 226.269 538.134 226.269 537.62V305.143H125.697V537.62C125.697 538.134 125.281 538.55 124.774 538.55C124.26 538.55 123.85 538.134 123.85 537.62V264.328C123.85 263.814 124.26 263.398 124.774 263.398H206.547C204.656 262.384 202.972 260.974 201.614 259.206C198.669 255.357 197.707 250.476 198.968 245.795L206.905 217.051H176.861C172.33 217.051 168.267 214.022 166.967 209.68L160.837 189.152C160.694 188.658 160.967 188.138 161.461 187.995C161.949 187.852 162.469 188.125 162.612 188.619L168.742 209.147C169.808 212.709 173.149 215.198 176.861 215.198H294.276L295.66 217.051H260.916L253.46 243.553C252.349 247.505 253.135 251.652 255.612 254.928C258.088 258.198 261.859 260.077 265.967 260.077H305.944C306.457 260.077 306.873 260.493 306.873 261V263.398H405.568C406.081 263.398 406.491 263.814 406.491 264.328V307.386C433.246 300.613 456.01 294.782 456.491 294.658C456.991 294.528 457.492 294.834 457.616 295.321C457.746 295.822 457.446 296.322 456.952 296.452C455.932 296.719 354.241 322.759 327.492 328.863C313.452 332.068 303.539 338.477 298.033 347.902C292.079 358.121 291.526 371.609 296.395 388.009C306.178 420.933 334.656 503.305 337.841 512.503L378.357 500.653L347.266 378.532C347.201 378.252 347.26 377.96 347.429 377.732C347.611 377.505 347.877 377.375 348.163 377.375H444.946C454.924 377.375 464.018 377.531 472.813 377.687C509.631 378.35 533.955 378.785 547.716 365.141C557.954 354.988 562.401 336.787 562.147 306.125C562.141 305.611 562.55 305.195 563.064 305.189C563.064 305.189 563.064 305.189 563.07 305.189C563.577 305.189 563.993 305.598 563.993 306.112C564.26 337.313 559.638 355.924 549.016 366.454C542.731 372.694 534.449 376.101 523.984 377.908C524.237 378.012 524.452 378.2 524.543 378.48L576.045 537.334C576.201 537.822 575.941 538.342 575.453 538.504ZM309.33 182.287L282.289 195.587C281.828 195.814 281.639 196.367 281.867 196.829C282.029 197.154 282.361 197.349 282.699 197.349C282.835 197.349 282.972 197.316 283.108 197.251L310.143 183.951C310.604 183.73 310.793 183.171 310.572 182.716C310.351 182.255 309.792 182.066 309.33 182.287ZM457.811 117.375C457.928 117.778 458.298 118.038 458.701 118.038C458.786 118.038 458.877 118.032 458.961 118.006L499.283 106.13C499.777 105.987 500.056 105.473 499.913 104.979C499.77 104.492 499.25 104.206 498.762 104.355L458.441 116.225C457.947 116.368 457.668 116.881 457.811 117.375ZM426.466 74.8242L431.731 74.6747L431.4 81.058C431.081 87.2008 433.87 93.012 438.856 96.6067C443.841 100.201 450.231 100.994 455.951 98.7323L464.87 95.2156L464.714 103.042C464.701 103.556 465.104 103.978 465.617 103.985C465.624 103.985 465.63 103.985 465.637 103.985C466.137 103.985 466.547 103.582 466.56 103.075L466.742 93.8636C466.748 93.5516 466.599 93.259 466.345 93.0835C466.092 92.908 465.767 92.869 465.474 92.9795L455.275 97.0097C450.153 99.0378 444.413 98.3228 439.941 95.0986C435.469 91.881 432.96 86.6677 433.246 81.1555L433.629 73.7711C433.642 73.5111 433.551 73.2641 433.369 73.0756C433.194 72.8871 432.895 72.7896 432.687 72.7961L428.241 72.9196L433.967 64.6317C434.071 64.4887 434.123 64.3262 434.136 64.1506L434.975 48.0624C434.988 48.1534 435.001 48.2444 435.046 48.3289C435.287 48.7774 435.852 48.9594 436.294 48.7189C436.424 48.6604 439.311 47.1978 441.67 50.89C441.852 51.163 442.151 51.319 442.45 51.319C442.626 51.319 442.795 51.267 442.951 51.176C443.38 50.8965 443.51 50.3245 443.23 49.8955C440.617 45.8068 436.99 46.2618 435.443 47.0808C435.222 47.1978 435.066 47.3863 434.994 47.6074L436.073 26.8714L449.237 32.9426C449.276 36.2253 450.166 51.2085 462.543 57.6243C462.783 57.7543 463.069 57.7673 463.323 57.6633C463.576 57.5528 463.771 57.3448 463.849 57.0783L467.932 44.1492C469.381 44.0842 473.164 44.1687 475.556 46.3918C477.097 47.8284 477.818 49.9605 477.701 52.7231C477.61 54.7707 477.123 56.7728 476.252 58.6774C473.567 64.5342 474.146 71.4375 477.76 76.6898C481.212 81.7015 486.652 84.3471 492.659 83.9506C493.231 83.9116 493.803 83.8531 494.375 83.7686L494.771 89.4434C494.804 89.9504 495.252 90.3079 495.753 90.3014C496.273 90.2624 496.65 89.8204 496.617 89.3134L496.156 82.618C496.136 82.3515 496 82.111 495.792 81.9485C495.584 81.786 495.324 81.721 495.051 81.773C494.225 81.9355 493.374 82.046 492.535 82.098C487.205 82.4555 482.356 80.0959 479.281 75.6367C476.037 70.924 475.524 64.7227 477.935 59.4509C478.911 57.3253 479.45 55.0892 479.548 52.8076C479.697 49.4664 478.768 46.8533 476.804 45.0267C473.184 41.6661 467.379 42.3226 467.132 42.3486C466.768 42.3941 466.469 42.6411 466.352 42.9921L462.426 55.4467C450.81 48.5694 451.083 32.5396 451.083 32.3706C451.096 32.0001 450.888 31.6621 450.55 31.5061L435.605 24.6157C435.326 24.4922 435.001 24.5117 434.741 24.6677C434.474 24.8238 434.312 25.1098 434.292 25.4153L432.297 63.7931L425.679 73.3681C425.484 73.6606 425.458 74.0311 425.627 74.3366C425.796 74.6487 426.095 74.8242 426.466 74.8242ZM442.236 76.9173C439.733 80.3689 436.372 80.4469 436.223 80.4469C435.709 80.4534 435.3 80.863 435.3 81.3765C435.3 81.89 435.709 82.2995 436.223 82.2995C436.405 82.2995 440.65 82.254 443.737 78.0028C444.036 77.5933 443.945 77.0083 443.529 76.7093C443.12 76.4167 442.541 76.5012 442.236 76.9173ZM447.026 174.877C447.384 175.247 447.378 175.833 447.013 176.19L429.931 192.805C429.749 192.987 429.521 193.071 429.287 193.071C429.047 193.071 428.806 192.974 428.624 192.792C428.267 192.421 428.28 191.836 428.637 191.485L445.72 174.857C446.09 174.506 446.675 174.513 447.026 174.877Z" fill="#1D253C"/>
<path d="M438.778 61.3165C439.564 61.3165 440.201 60.6795 440.201 59.893C440.201 59.0999 439.564 58.4629 438.778 58.4629C437.985 58.4629 437.354 59.0999 437.354 59.893C437.354 60.6795 437.985 61.3165 438.778 61.3165ZM539.818 384.473C491.326 384.473 443.432 383.875 425.634 383.628C421.565 383.57 418.718 379.448 420.245 375.672C422.501 370.088 427.461 363.575 438.297 363.575C457.277 363.575 462.497 363.575 476.726 363.575C505.666 363.575 513.733 290.921 537.927 290.921C547.885 290.921 559.748 290.921 570.188 290.921C580.621 290.921 601.019 384.473 539.818 384.473Z" fill="#1D253C"/>
<path d="M149.949 25.6818C143.761 15.0408 136.052 1.7997 123.194 0.200624C108.237 -1.63896 89.4183 9.51557 85.0566 19.5976C80.2918 30.6221 81.0134 37.9674 82.463 42.1991C82.6125 42.6217 83.0675 42.8427 83.4965 42.6997C83.7045 42.6282 83.867 42.4787 83.9645 42.2901L93.559 47.0094L86.0316 46.1253C85.8106 46.0993 85.5831 46.1708 85.4076 46.3138C85.2386 46.4633 85.1346 46.6779 85.1281 46.9054C85.1216 46.9769 84.8551 54.3222 84.7186 64.3457C84.5691 75.6952 89.4833 81.708 101.158 84.4577C102.347 84.7437 103.576 84.8672 104.831 84.8672C116.492 84.8672 130.006 73.8752 130.637 73.3551C130.942 73.1016 131.02 72.6596 130.819 72.3151L124.994 62.4671L141.024 70.352C140.92 70.5665 140.894 70.8265 141.011 71.054C141.154 71.3465 141.44 71.5155 141.739 71.5155C141.863 71.5155 141.98 71.4895 142.09 71.4375C142.402 71.288 149.702 67.6804 154.629 57.4164C159.654 46.9574 159.18 41.0486 152.439 29.9006C151.633 28.568 150.801 27.1509 149.949 25.6818ZM121.51 501.121L78.9463 523.001C78.9073 523.014 78.8813 523.04 78.8488 523.06L70.0994 529.242C69.8328 529.43 69.7028 529.762 69.7808 530.087C69.8523 530.405 70.1124 530.652 70.4374 530.704C70.7364 530.75 75.1631 531.445 80.9484 531.445C84.7316 531.445 89.0998 531.146 93.2795 530.184C103.673 527.785 113.131 526.154 113.17 526.141C117.961 525.634 121.621 521.779 121.881 516.969L122.687 501.882C122.7 501.596 122.563 501.316 122.316 501.16C122.076 500.998 121.764 500.985 121.51 501.121ZM246.537 538.602C246.414 538.914 246.115 539.116 245.783 539.116C245.757 539.116 245.725 539.116 245.699 539.109C226.763 537.1 202.231 528.026 201.984 527.928C199.144 526.966 197.05 524.509 196.543 521.526L194.45 509.273C194.398 508.967 194.522 508.662 194.769 508.48C195.022 508.291 195.354 508.272 195.627 508.415L233.998 528.403C234.037 528.423 234.076 528.449 234.115 528.475L246.271 537.659C246.563 537.88 246.674 538.27 246.537 538.602Z" fill="#1D253C"/>
<path d="M139.991 66.3673C139.341 64.5732 138.905 62.4801 138.905 60.0295C138.905 60.0295 134.446 59.4964 126.743 49.0959C126.522 48.7969 126.295 48.4849 126.061 48.1664C123.09 52.0601 123.272 58.8464 126.34 63.6826C129.018 67.9078 136.559 67.0238 139.991 66.3673ZM96.3411 72.9976C103.498 77.4568 109.446 69.7604 109.446 69.7604L93.7735 58.6839C93.7735 58.6839 89.1843 68.5449 96.3411 72.9976ZM194.437 190.647C184.173 200.911 173.09 197.394 173.09 197.394L174.442 201.853L78.2377 185.245L94.989 141.751C94.989 141.751 45.5347 172.277 33.3791 155.799C21.217 139.32 31.2145 124.461 50.1304 106.364C69.0463 88.2603 111.207 78.8089 111.207 78.8089L127.419 107.709L147.148 73.1341C147.148 73.1341 147.148 73.1341 168.228 85.2897C189.302 97.4453 194.437 112.845 199.306 136.077C204.162 159.309 204.708 180.383 194.437 190.647Z" fill="#DCB35E"/>
<path d="M126.34 63.6826C129.018 67.9079 136.559 67.0238 139.991 66.3673C139.341 64.5732 138.905 62.4801 138.905 60.0295C138.905 60.0295 134.446 59.4964 126.743 49.0959C126.522 48.7969 126.295 48.4849 126.061 48.1664C123.09 52.0601 123.272 58.8464 126.34 63.6826ZM95.6651 65.4377C91.4724 57.4683 83.23 41.9326 83.23 41.9326C84.8551 27.6189 103.231 15.7298 103.231 15.7298C103.231 15.7298 119.716 38.4224 127.419 48.8229C135.122 59.2234 139.581 59.763 139.581 59.763C139.581 70.027 147.148 74.3497 147.148 74.3497L127.348 107.982L111.207 79.6214C119.45 77.1903 117.825 69.3574 117.825 69.3574C117.825 69.3574 117.825 69.3574 113.092 71.6455C108.367 73.9466 99.8513 73.4006 95.6651 65.4377ZM79.3168 523.723C79.3168 523.723 110.525 513.992 115.797 512.783C121.068 511.561 121.881 501.843 121.881 501.843L124.312 468.002L101.743 475.094C101.743 475.094 102.828 481.172 105.26 492.521C107.691 503.864 79.3168 523.723 79.3168 523.723ZM213.626 503.728C212.008 490.76 210.383 479.417 210.383 479.417C210.383 479.417 192.546 246.562 173.09 200.638L79.5898 184.426C79.5898 184.426 62.2925 212.527 63.9111 251.425C65.5297 290.323 101.743 475.094 101.743 475.094L131.963 465.525C131.963 465.525 128.771 410.266 129.311 387.574C129.85 364.881 119.58 318.417 125.528 281.677L175.788 464.29L186.247 468.86C187.098 472.507 190.713 488.036 193.085 499.405C195.789 512.373 194.704 514.531 206.599 518.854C218.489 523.177 233.621 529.118 233.621 529.118C233.621 529.118 215.245 516.696 213.626 503.728ZM79.3168 133.912C83.9125 134.458 85.5311 138.781 93.91 139.32C100.885 139.769 113.664 135.726 117.903 132.02C118.761 131.273 118.202 129.862 117.071 129.862H75.6961C74.5521 129.862 73.9996 131.292 74.8641 132.027C75.8456 132.865 77.2952 133.678 79.3168 133.912ZM154.98 121.223C162.28 130.135 180.39 152.288 180.39 152.288L170.659 187.943L138.229 120.138L121.198 124.734H106.885C106.885 124.734 120.932 110.959 130.929 109.061C140.933 107.17 147.687 112.305 154.98 121.223Z" fill="white"/>
<path d="M92.8245 49.902C93.312 49.902 93.7085 49.512 93.7085 49.0244C93.7085 48.5434 93.312 48.1469 92.8245 48.1469C92.3434 48.1469 91.9469 48.5434 91.9469 49.0244C91.9469 49.512 92.3434 49.902 92.8245 49.902ZM104.922 46.9313C105.409 46.9313 105.799 46.5413 105.799 46.0538C105.799 45.5663 105.409 45.1763 104.922 45.1763C104.434 45.1763 104.044 45.5663 104.044 46.0538C104.044 46.5413 104.434 46.9313 104.922 46.9313ZM128.362 129.862H23.1021L0 85.4262H71.4774L90.1268 125.403H125.151C127.458 125.403 129.096 127.672 128.362 129.862Z" fill="#1D253C"/>
<path d="M103.043 16.8414C105.767 20.5986 119.872 39.9955 126.763 49.304C132.951 57.6504 137.176 59.8215 138.775 60.3805C139.016 68.8439 144.151 73.2576 146.056 74.6032L127.361 106.169L112.397 80.0764C119.027 77.5738 118.884 71.4895 118.689 69.7019L122.784 66.4778C123.135 66.1983 123.194 65.6913 122.921 65.3402C122.641 64.9892 122.134 64.9307 121.783 65.2037L117.396 68.6619L112.741 70.924C108.347 73.0561 100.371 72.6466 96.3866 65.0607C92.4929 57.6569 85.0956 43.7137 84.0685 41.7831C85.6221 29.6015 99.8448 19.071 103.043 16.8414ZM94.9435 65.8148C99.4353 74.3562 108.471 74.7982 113.45 72.3801L117.149 70.5795C117.246 72.6531 116.739 77.1448 110.973 78.8414C110.739 78.9129 110.544 79.0884 110.453 79.3159C110.356 79.5434 110.375 79.8034 110.505 80.0244L126.646 108.184C126.789 108.431 127.055 108.593 127.348 108.593C127.64 108.593 127.907 108.444 128.05 108.197L147.843 74.7657C147.954 74.5772 147.986 74.3562 147.928 74.1482C147.876 73.9337 147.739 73.7581 147.551 73.6476C147.479 73.6021 140.387 69.4484 140.387 59.763C140.387 59.36 140.088 59.0219 139.692 58.9634C139.646 58.9569 135.369 58.1899 128.069 48.3419C120.457 38.0649 104.057 15.4828 103.888 15.2553C103.634 14.9043 103.153 14.8198 102.789 15.0538C102.029 15.5414 84.075 27.3134 82.4304 41.8416C82.4109 42.0041 82.4369 42.1731 82.515 42.3161C82.515 42.3161 90.7573 57.8454 94.9435 65.8148ZM206.879 518.1C196.836 514.447 196.511 512.763 194.717 503.448C194.47 502.187 194.203 500.79 193.878 499.243C191.675 488.654 188.945 475.081 188.041 470.583L209.642 479.976C209.96 482.212 211.397 492.456 212.82 503.832C213.958 512.939 222.883 521.61 228.531 526.271C223.039 524.145 214.289 520.791 206.879 518.1ZM126.308 281.463C126.308 281.456 126.301 281.45 126.295 281.443C126.295 281.437 126.295 281.424 126.295 281.424C126.243 281.268 121.003 265.673 118.598 257.678C116.057 249.202 109.738 247.85 109.472 247.798C109.036 247.707 108.607 247.986 108.516 248.428C108.432 248.864 108.711 249.293 109.153 249.384C109.381 249.429 114.796 250.638 117.045 258.14C119.326 265.719 124.123 280.052 124.695 281.755C120.886 305.572 123.837 333.621 126.223 356.171C127.549 368.736 128.687 379.585 128.498 387.554C127.998 408.713 130.767 458.746 131.118 464.947L102.367 474.047C99.6433 460.078 66.2642 288.405 64.7236 251.392C63.2415 215.9 77.8022 189.158 79.9993 185.323L172.512 201.359C190.862 245.737 207.971 459.071 209.473 478.136L176.47 463.705L126.308 281.463ZM121.075 501.771C120.86 504.313 119.463 511.106 115.615 511.99C111.545 512.926 92.5384 518.776 83.6395 521.526C91.4399 515.545 108.022 501.563 106.053 492.346C104.115 483.304 103.023 477.558 102.672 475.653L123.421 469.133L121.075 501.771ZM234.076 528.448C233.901 528.331 215.992 516.085 214.426 503.63C212.833 490.864 211.215 479.527 211.189 479.319C210.929 475.932 193.079 245.737 173.831 200.326C173.727 200.066 173.5 199.89 173.227 199.845L79.7263 183.633C79.3948 183.581 79.0698 183.724 78.8943 184.01C78.7188 184.289 61.4864 212.754 63.0985 251.457C64.7106 289.959 100.553 473.228 100.95 475.243C100.969 475.36 102.074 481.51 104.467 492.69C106.761 503.383 79.1283 522.858 78.8488 523.06C78.5238 523.287 78.4068 523.723 78.5888 524.08C78.7253 524.36 79.0178 524.529 79.3168 524.529C79.3948 524.529 79.4728 524.516 79.5573 524.496C79.8693 524.392 110.798 514.765 115.979 513.569C121.757 512.237 122.648 502.33 122.687 501.895L125.085 468.561L132.21 466.305C132.567 466.188 132.795 465.85 132.775 465.48C132.743 464.934 129.59 409.993 130.123 387.593C130.312 379.52 129.161 368.619 127.829 356.002C125.586 334.681 122.81 308.432 125.775 285.623L175.008 464.505C175.073 464.739 175.242 464.934 175.469 465.031L186.214 469.731C186.715 472.227 189.829 487.75 192.292 499.574C192.617 501.115 192.884 502.499 193.124 503.76C194.931 513.134 195.412 515.656 206.32 519.621C218.066 523.892 233.173 529.814 233.329 529.879C233.426 529.911 233.524 529.931 233.621 529.931C233.914 529.931 234.2 529.775 234.343 529.502C234.531 529.131 234.421 528.682 234.076 528.448ZM91.8299 41.5491C91.6674 41.9651 91.1994 42.1796 90.7833 42.0171C87.9557 40.9316 86.8247 42.9142 86.7792 42.9987C86.6361 43.2652 86.3566 43.4212 86.0706 43.4212C85.9341 43.4212 85.8041 43.3887 85.6806 43.3172C85.2906 43.1027 85.1411 42.6087 85.3621 42.2186C85.9926 41.0746 88.0597 39.235 91.3619 40.5025C91.7844 40.6651 91.9859 41.1331 91.8299 41.5491ZM97.3487 38.5395C96.9911 38.2794 96.9066 37.7659 97.1732 37.4084C97.3032 37.2264 100.456 33.0142 107.45 35.7768C107.866 35.9458 108.068 36.4139 107.905 36.8299C107.736 37.2459 107.268 37.4474 106.852 37.2849C101.021 34.9838 98.5057 38.3249 98.4797 38.3574C98.3237 38.5785 98.0767 38.6955 97.8232 38.6955C97.6607 38.6955 97.4982 38.6435 97.3487 38.5395ZM109.465 57.9754C109.563 57.5334 109.985 57.2539 110.427 57.3514C110.863 57.4424 111.149 57.8779 111.051 58.3134C110.154 62.4931 105.968 63.9817 105.793 64.0402C105.708 64.0727 105.617 64.0857 105.533 64.0857C105.195 64.0857 104.883 63.8777 104.766 63.5397C104.616 63.1171 104.837 62.6556 105.26 62.5061C105.299 62.4931 108.763 61.245 109.465 57.9754ZM97.1537 53.9842C97.0236 50.045 95.2426 46.6713 95.2166 46.6388C95.0086 46.2488 95.1581 45.7548 95.5546 45.5468C95.9446 45.3323 96.4386 45.4818 96.6466 45.8718C96.7311 46.0213 98.6357 49.603 98.7722 53.9257C98.8047 54.9202 98.8047 55.9018 98.8112 56.8183C98.8112 58.1509 98.8112 59.906 98.9867 60.6405C100.241 59.984 101.71 59.0804 101.723 59.0739C102.107 58.8399 102.607 58.9569 102.841 59.3405C103.075 59.724 102.958 60.218 102.575 60.452C102.503 60.504 100.774 61.5636 99.4093 62.2461C99.1687 62.3631 98.9542 62.4086 98.7722 62.4086C98.4927 62.4086 98.2782 62.3111 98.1482 62.2266C97.2382 61.6676 97.1927 60.166 97.1862 56.8183C97.1862 55.9213 97.1862 54.9527 97.1537 53.9842ZM75.2801 130.974C75.3061 130.902 75.4101 130.675 75.6961 130.675H101.652L95.6261 133.171C95.2101 133.34 95.0151 133.815 95.1841 134.224C95.3206 134.536 95.6131 134.731 95.9381 134.731C96.0356 134.731 96.1461 134.705 96.2501 134.666L105.89 130.675H109.673L103.264 134.01C102.867 134.211 102.711 134.705 102.913 135.102C103.062 135.375 103.348 135.537 103.634 135.537C103.764 135.537 103.894 135.511 104.011 135.446L113.19 130.675H117.071C117.35 130.675 117.454 130.896 117.48 130.967C117.519 131.065 117.552 131.247 117.37 131.409C113.17 135.082 100.495 138.93 93.962 138.508C89.2493 138.209 86.7857 136.662 84.6081 135.303C83.0025 134.302 81.4944 133.353 79.4143 133.112C77.8542 132.93 76.5022 132.358 75.3841 131.409C75.2086 131.26 75.2411 131.071 75.2801 130.974ZM79.2193 134.718C80.9354 134.926 82.2419 135.732 83.7435 136.675C85.9731 138.066 88.7357 139.795 93.8515 140.126C94.2155 140.152 94.599 140.165 94.9891 140.165C102.159 140.165 114.152 136.376 118.442 132.631C119.079 132.066 119.3 131.195 118.995 130.395C118.689 129.576 117.935 129.056 117.071 129.056H114.464C114.249 128.686 113.781 128.536 113.398 128.738L112.793 129.056H108.503C108.503 128.952 108.484 128.848 108.438 128.744C108.269 128.328 107.795 128.133 107.379 128.302L105.572 129.056H75.6961C74.8186 129.056 74.058 129.589 73.759 130.415C73.46 131.221 73.6875 132.098 74.3376 132.651C75.7026 133.802 77.3407 134.504 79.2193 134.718ZM154.356 121.73C161.136 130.012 177.238 149.714 179.493 152.47L170.451 185.629L138.665 119.182L121.094 123.921H116.232L122.017 118.714C122.349 118.415 122.375 117.902 122.076 117.57C121.777 117.232 121.263 117.206 120.932 117.512L113.807 123.921H112.585L115.264 118.558C120.022 114.847 126.106 110.797 131.079 109.861C140.836 108.015 147.434 113.274 154.356 121.73ZM108.926 123.921C109.745 123.174 110.876 122.166 112.215 121.041L110.772 123.921H108.926ZM130.78 108.268C120.652 110.179 106.898 123.583 106.313 124.155L104.896 125.54H109.959L109.803 125.852C109.602 126.255 109.764 126.742 110.167 126.944C110.278 127.002 110.401 127.028 110.525 127.028C110.824 127.028 111.11 126.866 111.253 126.58L111.773 125.54H112.585C112.611 125.689 112.657 125.832 112.767 125.949C112.923 126.125 113.144 126.216 113.365 126.216C113.56 126.216 113.749 126.151 113.911 126.008L114.425 125.54H121.205L137.787 121.1L170.867 190.257L180.787 153.9L190.602 164.457C190.765 164.626 190.979 164.711 191.194 164.711C191.395 164.711 191.59 164.639 191.746 164.496C192.078 164.19 192.091 163.677 191.792 163.352L180.995 151.749C180.559 151.216 162.82 129.511 155.611 120.703C148.324 111.798 141.304 106.279 130.78 108.268Z" fill="#1D253C"/>
</svg>
