<svg width="142" height="324" viewBox="0 0 142 324" fill="none" xmlns="http://www.w3.org/2000/svg">
<path d="M105.871 242.887C74.6797 271.629 26.543 248.465 26.543 248.465C29.9766 213.645 53.3555 116.867 53.3555 116.867C51.2539 112.426 47.5312 95.1641 46.0625 88.1328C45.6562 86.1758 45.9375 84.1328 46.8867 82.375C60.5898 56.9766 73.3164 56.8438 73.3164 56.8438C73.3164 56.8438 74.4883 58.2695 76.0078 60.1914C75.9102 60.7109 75.5625 61.2422 75.3789 61.5117C76.082 63.0586 76.8672 64.7109 77.5391 65.9883C82.4453 75.3008 76.3711 116.867 76.3711 116.867C76.3711 116.867 82.4258 121.152 87.3945 131.363C94.4063 145.781 105.871 242.887 105.871 242.887Z" fill="#1D253C"/>
<path d="M67.8672 69.1797C63.3008 67.9961 59.0977 71.543 55.1758 83.9922C51.461 95.7891 50.0821 103.414 46.5625 103.328C44.3086 103.277 28.7461 83.5742 29.2266 81.5156C29.4649 80.4883 29.4805 79.2461 29.418 78.1484C29.293 76.0234 27.7813 74.1328 25.6719 73.8633C25.125 73.7891 24.5977 73.8477 24.1563 74.125L26.6875 76.1719C27.3203 76.6875 27.4336 77.6172 26.9375 78.2656L26.1055 79.3594L16.1836 71.5C16.1836 71.5 13.1758 77.4219 14.6953 81.625C15.8086 84.6953 21.6055 85.0586 23.6133 87.5781C27.2383 92.1211 33.1172 110.324 43.1797 115.625C53.9922 121.324 68.7813 99.4023 73.6172 85.418C78.1328 72.3516 71.5821 70.1367 67.8672 69.1797ZM47.5 37.5781C47.9141 38.2734 48.6641 39.1133 48.7188 39.7617C48.7735 40.4102 48.0508 46.5 48.1446 46.6875C48.2422 46.8711 48.9102 47.0156 49.3008 46.8984C49.6953 46.7852 50.8086 46.3789 50.9649 46.3945C51.1172 46.4141 51.7618 48.082 51.8672 48.7227C51.9727 49.3672 52.4805 49.3789 53.1797 49.3164C53.1797 49.3164 53.1407 49.6289 53.1563 49.9766C53.168 50.3203 53.2305 50.7031 53.4297 50.8477C53.7266 51.0586 54.3203 51.0586 54.6993 51.2148C54.7071 51.2187 54.7149 51.2188 54.7188 51.2227C54.7696 51.2422 54.8125 51.2695 54.8516 51.2969C54.8633 51.3047 54.875 51.3125 54.8868 51.3203C54.9336 51.3555 54.9727 51.3984 55 51.4492C55.0821 51.6055 55.2344 52.0742 55.4219 52.625C55.7539 53.4297 56.2344 54.3672 56.7188 54.4492C57.5743 54.5898 61.4961 51.3789 62.1563 51.5703C64.7735 52.332 61.7344 60.9922 60.7461 63.6055C68.0977 56.8984 73.3164 56.8438 73.3164 56.8438V56.8477C72.7852 54.3633 72.2422 51.457 71.8555 48.543C71.8555 48.5391 71.8516 48.5391 71.8516 48.5352C71.4297 45.6836 69.9102 40.9297 69.9102 40.9297C70.9727 40.0703 71.043 39.0273 70.9024 37.7617C69.7188 33.582 66.5196 35.6172 66.5196 35.6172C66.4063 35.6875 66.2735 35.75 66.1328 35.8047C65.7735 35.9414 65.3282 36.0234 64.8243 36.0664C64.7735 36.0703 64.7305 36.0781 64.6758 36.082C64.5508 36.0898 64.4141 36.0898 64.2774 36.0977C64.2071 36.0977 64.1446 36.1016 64.0703 36.1016C63.9414 36.1055 63.8008 36.0977 63.6641 36.0938C63.5821 36.0938 63.5078 36.0937 63.4219 36.0898C63.2852 36.082 63.1407 36.0742 62.9961 36.0625C62.9063 36.0586 62.8203 36.0547 62.7305 36.0469C62.586 36.0352 62.4414 36.0195 62.293 36.0039C62.1953 35.9961 62.0977 35.9883 62 35.9766C61.8516 35.9609 61.6993 35.9414 61.5508 35.918C61.4493 35.9062 61.3438 35.8945 61.2383 35.8789C61.0821 35.8555 60.9297 35.832 60.7735 35.8086C60.6641 35.793 60.5586 35.7734 60.4453 35.7578C60.293 35.7305 60.1328 35.7031 59.9766 35.6758C59.8633 35.6563 59.75 35.6406 59.6368 35.6172C59.4766 35.5898 59.3164 35.5586 59.1602 35.5234C59.043 35.5039 58.9258 35.4805 58.8086 35.457C58.6485 35.4219 58.4883 35.3906 58.3282 35.3594C58.211 35.332 58.086 35.3086 57.9688 35.2812C57.8086 35.2422 57.6446 35.207 57.4844 35.1719C57.3672 35.1445 57.2461 35.1172 57.125 35.0898C56.9649 35.0508 56.8008 35.0156 56.6407 34.9766C56.5157 34.9453 56.3946 34.918 56.2735 34.8867C56.1133 34.8477 55.9571 34.8086 55.8008 34.7695C55.6758 34.7383 55.5547 34.707 55.4297 34.6758C55.2696 34.6367 55.1133 34.5937 54.9571 34.5547C54.836 34.5234 54.7188 34.4883 54.6016 34.4609C54.4414 34.418 54.2852 34.375 54.125 34.332C54.0078 34.3008 53.8946 34.2656 53.7774 34.2383C53.625 34.1953 53.4766 34.1523 53.3243 34.1094C53.2032 34.0781 53.0821 34.0469 52.9649 34.0078C52.8203 33.9688 52.6797 33.9297 52.5391 33.8867C52.4219 33.8555 52.3086 33.8242 52.1953 33.7891C52.0508 33.7461 51.9063 33.7031 51.7657 33.6641C51.6602 33.6328 51.5547 33.6016 51.4532 33.5703C51.3125 33.5273 51.1758 33.4844 51.0391 33.4453C50.9375 33.4141 50.8321 33.3828 50.7344 33.3516C50.6016 33.3125 50.4727 33.2734 50.3516 33.2344C50.2461 33.2031 50.1446 33.1719 50.0469 33.1406C49.9297 33.1055 49.8086 33.0703 49.6953 33.0312C49.6016 33.0039 49.5157 32.9766 49.4258 32.9453C49.3125 32.9102 49.2032 32.875 49.0938 32.8398C49.0078 32.8125 48.9219 32.7852 48.8399 32.7617C48.7383 32.7266 48.6328 32.6953 48.5352 32.6602C48.461 32.6367 48.3907 32.6133 48.3164 32.5898C48.2266 32.5586 48.1328 32.5312 48.0469 32.5C47.9688 32.4766 47.8985 32.4492 47.8243 32.4297C47.7539 32.4023 47.6797 32.3789 47.6172 32.3594C47.5469 32.3359 47.4844 32.3164 47.4219 32.293C47.3633 32.2734 47.3008 32.2539 47.2461 32.2344C47.1993 32.2188 47.1641 32.207 47.1211 32.1914C47.0625 32.1719 47 32.1523 46.9532 32.1367C46.8985 32.1172 46.8555 32.1016 46.8125 32.0859C46.793 32.0781 46.7618 32.0703 46.7461 32.0625C46.6289 32.0195 46.5625 32 46.5625 32L45.9493 31.7422C45.9961 31.8555 46.0586 32.0273 46.0938 32.1328C46.0938 32.1328 47.0821 36.8867 47.5 37.5781ZM135.543 291.785C135.543 291.785 134.875 291.668 134.648 291.398C125.891 280.875 113.606 256.422 102.348 245.855C97.961 249.246 93.3047 251.742 88.5469 253.516L129.438 296.125C130.117 296.828 130.496 297.766 130.473 298.742C130.461 299.465 130.387 300.445 130.195 301.719L132.91 302.73C133.742 301.055 134.043 298.816 133.879 296.555C133.711 294.293 135.543 291.785 135.543 291.785ZM130.883 306.898C131.77 305.926 131.895 304.957 131.895 304.957L129.895 304.195C129.895 304.195 129.43 307.145 129.254 307.641C129.254 307.641 129.996 307.871 130.883 306.898ZM39.2539 314.094C42.9649 299.531 56.8516 271.219 56.9688 256.758C51.8711 256.191 47.1133 255.23 42.9453 254.156L32.3789 312.637C32.2032 313.598 31.6641 314.453 30.8633 315.012C30.2696 315.422 29.4336 315.937 28.293 316.527L29.0625 319.328C30.9102 319.02 32.8946 317.953 34.6289 316.492C36.3594 315.031 39.4649 315.051 39.4649 315.051C39.4649 315.051 39.1641 314.438 39.2539 314.094ZM22.9493 319.238C23.4532 319.086 26.1133 317.734 26.1133 317.734L26.668 319.805C26.668 319.805 25.8086 320.27 24.5039 320.121C23.1993 319.973 22.9493 319.238 22.9493 319.238Z" fill="#DCB35E"/>
<path d="M44.7109 217.328C43.2344 221.332 42.0234 244.016 42.0234 244.016C45.5313 240.008 44.7109 217.328 44.7109 217.328ZM76.0078 60.1914C63.6719 62.75 50.9258 75.5352 50.9258 75.5352C62.1875 65.9219 75.3789 61.5117 75.3789 61.5117L76.0078 60.1914ZM67.2891 98.6367C75.1602 98.7266 75.6797 93.9375 75.6797 93.9375C73.4648 96.6523 68.7812 97.3945 68.7812 97.3945L67.2891 98.6367ZM94.3125 238.988C93.4414 238.441 90.2812 226.402 90.2812 226.402C90.7422 230.227 92.6875 239.594 93.4414 239.973C96.2773 241.395 100.754 244.016 100.754 244.016C99.1172 241.719 95.1836 239.535 94.3125 238.988ZM62.0781 149.711C61.4609 166.402 64.8633 211.121 64.8633 211.121C66.2109 194.633 62.0781 149.711 62.0781 149.711ZM90.2656 194.016C92.1172 214.621 98.2891 234.402 98.2891 233.582C98.2891 232.758 93.5586 212.355 90.4727 176.707C87.3867 141.055 76.3711 126.836 76.3711 126.836C87.8008 151.379 88.4141 173.41 90.2656 194.016ZM58.5625 119.102C55.9922 128.406 56.9727 139.344 56.9727 139.344C56.9727 133.906 60.1523 120.188 60.1523 120.188L58.5625 119.102ZM69.4961 121.254C69.4961 121.254 71.4492 129.465 72.2656 138.98C72.2656 138.98 72.7539 126.113 70.8789 120.402L69.4961 121.254ZM73.7148 119.102C76.9688 120.973 82.2188 129.012 82.2188 129.012C80.1367 123.484 75.1523 118.488 75.1523 118.488L73.7148 119.102ZM53.3555 116.867C53.3555 116.867 61.5859 120.766 68.1055 119.949C74.6172 119.133 76.3711 116.867 76.3711 116.867C76.3711 116.867 74.2617 121.039 68.8242 121.309C59.5977 121.762 53.3555 116.867 53.3555 116.867Z" fill="#F1F1F1"/>
<path d="M54.8984 37.9297C52.6484 37.1836 49.5742 39.1133 49.5742 39.1133C49.9531 39.4883 50.4844 39.3086 50.6992 39.2148C50.7461 39.3008 50.8008 39.3867 50.8633 39.4727C51.3516 40.1562 52.0742 40.4766 52.4805 40.1914C52.8828 39.8984 52.8125 39.1094 52.3242 38.4258C52.3242 38.4219 52.3203 38.418 52.3203 38.418C53.668 37.9453 54.8984 37.9297 54.8984 37.9297ZM47.8047 36.3633C47.8047 36.3633 48.9375 37.0898 49.4609 36.9023C49.9883 36.7109 51.0391 35.957 52.043 35.6602C52.4102 35.5547 53.668 35.3945 53.668 35.3945C53.668 35.3945 51.9727 34.6094 51.1797 34.7422C50.3945 34.8711 47.8047 36.3633 47.8047 36.3633ZM26.668 76.1562L11.6992 64.1797C11.1328 63.7266 10.3047 63.8125 9.84375 64.375L8.79688 65.6484L26.1055 79.3594L26.9219 78.2851C27.4258 77.625 27.3125 76.6797 26.668 76.1562ZM74.9688 24.7226C80.0586 26.5312 82.6367 23.1133 82.4336 21.6016C82.2344 20.0937 78.6211 19.793 77.8711 19.1914C77.1211 18.5859 76.5117 15.9726 74 16.375C71.4883 16.7773 72.9141 20.707 72.9141 20.707C72.9141 20.707 69.8828 22.9101 74.9688 24.7226ZM74.5039 22.8086C67.9766 12.3516 51.3047 14.0625 44.5742 21.5039C38.9531 27.7227 44.1133 30.8789 45.9609 31.7461L46.5625 32C46.5625 32 46.6289 32.0195 46.7461 32.0625C46.7617 32.0703 46.793 32.0781 46.8125 32.0859C46.8555 32.1016 46.8984 32.1172 46.9531 32.1367C47 32.1523 47.0625 32.1719 47.1211 32.1914C47.1641 32.207 47.1992 32.2187 47.2461 32.2344C47.3008 32.2539 47.3633 32.2734 47.4219 32.293C47.4844 32.3164 47.5469 32.3359 47.6172 32.3594C47.6797 32.3789 47.7539 32.4023 47.8242 32.4297C47.8984 32.4492 47.9688 32.4766 48.0469 32.5C48.1328 32.5312 48.2266 32.5586 48.3164 32.5898C48.3906 32.6133 48.4609 32.6367 48.5352 32.6602C48.6328 32.6953 48.7383 32.7266 48.8398 32.7617C48.9219 32.7852 49.0078 32.8125 49.0938 32.8398C49.2031 32.875 49.3125 32.9102 49.4258 32.9453C49.5156 32.9766 49.6016 33.0039 49.6953 33.0312C49.8086 33.0703 49.9297 33.1055 50.0469 33.1406C50.1445 33.1719 50.2461 33.2031 50.3516 33.2344C50.4727 33.2734 50.6016 33.3125 50.7344 33.3516C50.832 33.3828 50.9375 33.4141 51.0391 33.4453C51.1758 33.4844 51.3125 33.5273 51.4531 33.5703C51.5547 33.6016 51.6602 33.6328 51.7656 33.6641C51.9062 33.7031 52.0508 33.7461 52.1953 33.7891C52.3086 33.8242 52.4219 33.8555 52.5391 33.8867C52.6797 33.9297 52.8203 33.9687 52.9648 34.0078C53.082 34.0469 53.2031 34.0781 53.3242 34.1094C53.4766 34.1523 53.625 34.1953 53.7773 34.2383C53.8945 34.2656 54.0078 34.3008 54.125 34.332C54.2852 34.375 54.4414 34.418 54.6016 34.4609C54.7188 34.4883 54.8359 34.5234 54.957 34.5547C55.1133 34.5937 55.2695 34.6367 55.4297 34.6758C55.5547 34.707 55.6758 34.7383 55.8008 34.7695C55.957 34.8086 56.1133 34.8477 56.2734 34.8867C56.3945 34.918 56.5156 34.9453 56.6406 34.9766C56.8008 35.0156 56.9648 35.0508 57.125 35.0898C57.2461 35.1172 57.3672 35.1445 57.4844 35.1719C57.6445 35.207 57.8086 35.2422 57.9688 35.2812C58.0859 35.3086 58.2109 35.332 58.3281 35.3594C58.4883 35.3906 58.6484 35.4219 58.8086 35.457C58.9258 35.4805 59.043 35.5039 59.1602 35.5234C59.3164 35.5586 59.4766 35.5898 59.6367 35.6172C59.75 35.6406 59.8633 35.6562 59.9766 35.6758C60.1328 35.7031 60.293 35.7305 60.4453 35.7578C60.5586 35.7734 60.6641 35.793 60.7734 35.8086C60.9297 35.832 61.082 35.8555 61.2383 35.8789C61.3438 35.8945 61.4492 35.9062 61.5508 35.918C61.6992 35.9414 61.8516 35.9609 62 35.9766C62.0977 35.9883 62.1953 35.9961 62.293 36.0039C62.4414 36.0195 62.5859 36.0352 62.7305 36.0469C62.8203 36.0547 62.9063 36.0586 62.9961 36.0625C63.1406 36.0742 63.2852 36.082 63.4219 36.0898C63.5078 36.0937 63.582 36.0937 63.6641 36.0937C63.8008 36.0977 63.9414 36.1055 64.0703 36.1016C64.1445 36.1016 64.207 36.0977 64.2773 36.0977C64.4141 36.0898 64.5508 36.0898 64.6758 36.082C64.7305 36.0781 64.7734 36.0703 64.8242 36.0664C65.3281 36.0234 65.7734 35.9414 66.1328 35.8047C66.2734 35.75 66.4063 35.6875 66.5195 35.6172C66.5195 35.6172 69.7188 33.582 70.9023 37.7617C71.043 39.0273 70.9727 40.0703 69.9102 40.9297C69.9102 40.9297 71.1367 44.7773 71.6914 47.6211C75.6172 46.5039 80.8555 43.2266 82.8359 36.0859C85.8477 25.2226 74.5039 22.8086 74.5039 22.8086ZM130.195 301.719L129.895 304.195L131.895 304.957C131.895 304.957 131.77 305.926 130.883 306.898C129.996 307.871 129.254 307.641 129.254 307.641C127.602 310.777 126.598 312.477 130.09 313.809L141.77 298.125C141.77 298.125 139.141 292.367 135.543 291.785C135.543 291.785 133.711 294.293 133.879 296.555C134.043 298.816 133.742 301.055 132.91 302.73L130.195 301.719ZM29.0625 319.328C30.9102 319.02 32.8945 317.953 34.6289 316.492C36.3594 315.031 39.4648 315.051 39.4648 315.051C41.1016 318.309 37.9844 323.816 37.9844 323.816L18.4492 323.527C17.4805 319.918 19.4375 319.73 22.9492 319.238C22.9492 319.238 23.1992 319.973 24.5039 320.121C25.8086 320.27 26.668 319.805 26.668 319.805L26.1133 317.734L28.293 316.527L29.0625 319.328Z" fill="#1D253C"/>
<path d="M20.4961 64.7344C20.4961 65.4219 19.9414 65.9766 19.2578 65.9766C18.5742 65.9766 18.0156 65.4219 18.0156 64.7344C18.0156 64.0469 18.5742 63.4922 19.2578 63.4922C19.9414 63.4922 20.4961 64.0469 20.4961 64.7344ZM20.4961 58.9961C20.4961 59.6836 19.9414 60.2383 19.2578 60.2383C18.5742 60.2383 18.0156 59.6836 18.0156 58.9961C18.0156 58.3125 18.5742 57.7539 19.2578 57.7539C19.9414 57.7539 20.4961 58.3125 20.4961 58.9961ZM20.4961 53.2578C20.4961 53.9453 19.9414 54.5 19.2578 54.5C18.5742 54.5 18.0156 53.9453 18.0156 53.2578C18.0156 52.5742 18.5742 52.0156 19.2578 52.0156C19.9414 52.0156 20.4961 52.5742 20.4961 53.2578ZM27.1875 19.1914C27.1875 23.8477 23.4219 27.6211 18.7734 27.6211C14.1289 27.6211 10.3594 23.8477 10.3594 19.1914C10.3594 19.3125 10.3672 19.4297 10.375 19.5469C10.3672 19.4297 10.3594 19.3125 10.3594 19.1914C10.3594 14.5391 14.1289 10.7656 18.7734 10.7656C23.4219 10.7656 27.1875 14.5391 27.1875 19.1914ZM19.3516 0C19.3164 0 19.2891 0.00390625 19.2578 0.00390625C19.2266 0.00390625 19.1953 0 19.1641 0C8.58203 0 0 8.59375 0 19.1914C0 34.1953 17.6953 47.6172 19.082 48.6406C19.1367 48.6836 19.2031 48.7344 19.2578 48.7617C19.3203 48.7266 19.3828 48.6797 19.4492 48.6328C20.9336 47.5273 38.5117 34.1484 38.5117 19.1914C38.5117 8.59375 29.9336 0 19.3516 0Z" fill="#1D253C"/>
</svg>
