<svg width="634" height="603" viewBox="0 0 634 603" fill="none" xmlns="http://www.w3.org/2000/svg">
<path d="M569.557 460.463H610.184V476.739H561.892C555.237 489.983 547.87 502.552 539.762 514.278C539.086 515.244 538.41 516.211 537.727 517.178C537.175 517.956 536.623 518.719 536.064 519.49C535.352 520.478 534.632 521.452 533.899 522.419C533.397 523.095 532.889 523.779 532.38 524.455C531.196 525.996 530.012 527.53 528.798 529.034C511.856 550.21 492.116 567.845 469.441 580.581C469.354 580.632 469.266 580.683 469.186 580.734C467.036 581.933 464.864 583.104 462.662 584.216C462.655 584.216 462.655 584.223 462.648 584.223C438.876 596.247 412.016 603 381.93 603C293.562 603 199.847 550.617 133.82 476.739H52.4846V460.463H119.979C74.6438 404.176 45.4663 337.545 45.4663 272.732C45.4663 113.082 161.886 24.8757 321.388 24.8757C480.884 24.8757 610.184 94.0436 610.184 253.693C610.184 322.948 597.238 397.844 569.557 460.463Z" fill="#F1F1F1"/>
<path d="M486.798 139.928V246.889H495.872V267.141L497.223 267.105V246.889H634V139.928H486.798ZM205.725 78.6544C205.725 79.2287 206.189 79.6939 206.771 79.6939C207.337 79.6939 207.81 79.2287 207.81 78.6544C207.81 78.0801 207.337 77.6149 206.771 77.6149C206.189 77.6149 205.725 78.0801 205.725 78.6544ZM191.049 100.375V90.2054C191.049 88.5916 192.356 87.2831 193.955 87.2831H202.884L204.627 84.0192C204.736 83.8011 204.889 83.6121 205.056 83.4522C203.087 82.7398 201.663 80.8715 201.663 78.6544C201.663 75.8339 203.952 73.544 206.771 73.544C209.582 73.544 211.871 75.8339 211.871 78.6544C211.871 80.8715 210.447 82.7398 208.478 83.4449C208.645 83.6121 208.798 83.8011 208.907 84.0192L210.65 87.2831H219.572C221.178 87.2831 222.486 88.5916 222.486 90.2054V100.375C222.486 101.982 221.178 103.29 219.572 103.29H193.955C192.356 103.29 191.049 101.982 191.049 100.375ZM245.793 126.465H111.319V27.4491H107.251V130.536H245.793V126.465ZM166.819 226.775H154.715V230.846H166.819V226.775ZM154.715 225.597H181.822V221.526H154.715V225.597ZM154.715 220.349H173.692V216.285H154.715V220.349ZM154.715 206.355V210.426H166.819V206.355H154.715ZM181.822 201.114H154.715V205.185H181.822V201.114ZM154.715 195.865V199.936H173.692V195.865H154.715ZM66.9934 215.427H16.8483V229.799H66.9934V215.427ZM85.6943 194.528H16.8483V208.914H85.6943V194.528ZM233.064 460.463H260.381L246.628 430.884L233.064 460.463ZM463.563 285.94C456.436 270.391 441.724 258.934 423.851 256.644C423.444 256.594 423.037 256.55 422.638 256.492L422.151 245.421C422.151 245.421 422.572 241.619 419.957 240.267C419.957 240.267 408.659 243.792 397.914 245.421C387.161 247.049 381.828 242.069 381.828 242.069C381.828 242.069 377.041 242.433 376.764 244.781C376.496 247.136 379.387 249.041 378.443 251.112C378.167 251.723 377.622 252.944 376.997 254.369C359.437 255.336 343.468 259.043 333.638 267.614L316.135 281.2L323.706 307.646L345.124 382.513H326.343C327.397 386.395 328.523 390.088 329.605 393.425C333.26 404.699 332.126 416.977 326.474 427.394L308.565 460.463H450.507C448.582 428.165 450.464 395.751 456.109 363.896C457.794 365.518 459.56 367.066 461.434 368.527L487.386 399.909C495.487 409.708 509.785 411.583 520.145 404.198C531.174 396.318 533.622 380.929 525.573 370.01L463.563 285.94ZM244.18 337.065C235.323 343.622 232.17 355.442 236.609 365.539C241.266 376.138 252.789 381.612 263.716 378.959L250.319 332.304L244.18 337.065ZM299.745 476.739L294.136 487.09C341.455 487.09 385.17 512.395 408.775 553.452L409.066 553.968L454.111 500.793L451.793 476.739H299.745ZM72.6967 385.625L119.202 430.884H121.149L71.1056 382.186C71.6287 383.335 72.1518 384.483 72.6967 385.625ZM117.233 364.943L112.46 378.144L114.981 356.961L101.14 334.63L92.669 352.665L96.7085 327.979L61.2538 288.084L61.3192 283.287H59.9606L59.8952 288.593L95.27 328.4L89.7629 362.036L101.307 337.465L113.579 357.267L109.721 389.717L117.131 369.21L134.924 426.798L136.515 430.884H137.968L136.203 426.347L117.233 364.943ZM194.013 172.073V173.628L195.27 174.319L214.966 162.848L210.156 228.032L194.013 244.083V245.464L207.752 238.115L206.342 338.483L172.006 357.739L205.979 350.746L203.472 383.073L176.431 387.987L166.782 430.884H168.17L177.557 389.165L204.744 384.222L207.475 349.06L180.281 354.65L207.693 339.282L209.132 235.832L198.532 241.51L211.471 228.643L216.506 160.376L195.248 172.756L194.013 172.073ZM152.586 349.619L130.158 293.507L133.972 283.287H132.527L128.705 293.522L148.997 344.298L128.959 325.056L125.886 354.068L149.665 402.475L150.893 430.884H152.252L151.017 402.271L151.009 402.126L127.274 353.828L130.013 327.95L152.586 349.619ZM135.404 283.287L152.579 310.925L144.972 283.287H143.57L148.786 302.26L137.002 283.287H135.404ZM495.872 448.039C496.322 448.039 496.773 448.039 497.223 448.039V415.182L495.872 415.131V448.039ZM497.223 62.1311C496.773 61.8913 496.322 61.6586 495.872 61.426V139.928H497.223V62.1311ZM483.586 448.097C484.037 448.097 484.487 448.09 484.938 448.09V414.775L483.586 414.724V448.097ZM483.586 267.556L484.938 267.512V106.961H490.299V0H339.072V106.961H483.586V267.556ZM297.943 25.5372C297.485 25.559 297.035 25.5881 296.584 25.6172V260.097L297.943 260.047V25.5372ZM297.943 383.655L296.584 383.662V446.127C297.042 446.127 297.493 446.127 297.943 446.135V383.655ZM284.299 260.519L285.657 260.468V26.4168C285.2 26.4532 284.749 26.4968 284.299 26.5331V260.519ZM284.299 383.705V446.098C284.749 446.098 285.2 446.098 285.657 446.106V383.698L284.887 383.705C284.691 383.705 284.495 383.705 284.299 383.705ZM588.585 408.087C588.715 407.643 588.853 407.207 588.977 406.771L583.317 406.015L589.391 405.368C589.529 404.903 589.653 404.43 589.783 403.965L571.896 405.877L588.585 408.087ZM593.314 333.547L590.299 312.117L566.454 336.934V362.995L559.334 344.008L550.761 352.375L556.319 390.699L543.387 373.049L533.492 391.52L542.777 429.553L537.386 448.773C537.822 448.897 538.25 449.035 538.672 449.195L544.179 429.575L534.93 391.702L543.569 375.586L558.441 395.889L552.2 352.862L558.797 346.428L567.813 370.461V337.48L589.347 315.068L592.944 340.671L594.295 340.613L595.966 309.267L608.433 298.123C608.477 297.476 608.528 296.822 608.571 296.175L594.644 308.635L593.314 333.547ZM547.536 457.293C547.768 457.758 547.971 458.238 548.16 458.732L570.763 428.187L581.617 429.822C581.77 429.386 581.93 428.95 582.075 428.514L570.16 426.725L547.536 457.293ZM76.7725 366.964C73.9463 363.831 67.7417 361.367 61.7987 359.608C62.0022 360.138 62.1838 360.676 62.3872 361.207C66.8844 362.588 71.3744 364.354 74.2006 366.47L63.8984 365.161C64.0946 365.648 64.2762 366.128 64.4651 366.608L78.0004 368.316L76.7725 366.964ZM63.4116 330.138L53.1167 331.657C53.0077 331.213 52.906 330.77 52.797 330.334L55.0057 329.999C54.2646 329.92 53.4799 329.84 52.659 329.752C52.5427 329.287 52.4265 328.822 52.3102 328.357C55.4416 328.655 58.1007 328.989 59.7499 329.352L63.4116 330.138Z" fill="#DCB35E"/>
<path d="M503.174 196.694H493.779V198.046H503.174V196.694ZM518.176 191.446H493.779V192.805H518.176V191.446ZM510.039 186.204H493.779V187.557H510.039V186.204ZM597.55 155.84V158.326H584.879L577.999 165.211C572.041 161.009 564.798 158.515 557.024 158.515C556.428 158.515 555.825 158.53 555.237 158.559C554.932 158.574 554.626 158.603 554.321 158.625C554.045 158.646 553.762 158.661 553.486 158.683C553.079 158.726 552.687 158.777 552.28 158.835C552.113 158.857 551.946 158.872 551.771 158.901C551.306 158.959 550.848 159.039 550.384 159.126C550.311 159.141 550.238 159.155 550.158 159.17H550.166L557.024 195.138H593.612C593.612 183.318 587.894 172.734 579.103 166.025L585.439 159.679H597.55V162.172H613.81V155.84H597.55ZM244.441 127.817H109.96V28.8084H108.609V129.176H244.441V127.817ZM193.955 88.6425C193.097 88.6425 192.4 89.3403 192.4 90.2054V100.375C192.4 101.24 193.097 101.938 193.955 101.938H219.572C220.429 101.938 221.134 101.24 221.134 100.375V90.2054C221.134 89.3403 220.429 88.6425 219.572 88.6425H209.837L207.715 84.6589C207.308 83.9028 206.226 83.9028 205.819 84.6589L203.69 88.6425H193.955ZM203.015 78.6544C203.015 80.7261 204.7 82.4054 206.771 82.4054C208.834 82.4054 210.52 80.7261 210.52 78.6544C210.52 76.5899 208.834 74.9034 206.771 74.9034C204.7 74.9034 203.015 76.5899 203.015 78.6544ZM252.913 140.313H93.9695V17.4028H252.913V140.313ZM206.771 81.046C208.086 81.046 209.161 79.9774 209.161 78.6544C209.161 77.3314 208.086 76.2555 206.771 76.2555C205.448 76.2555 204.373 77.3314 204.373 78.6544C204.373 79.9774 205.448 81.046 206.771 81.046ZM428.166 21.8953H418.765V23.2474H428.166V21.8953ZM443.162 16.6468H418.765V18.0062H443.162V16.6468ZM435.032 11.4056H418.765V12.765H435.032V11.4056ZM369.615 21.8953H360.221V23.2474H369.615V21.8953ZM384.611 16.6468H360.221V18.0062H384.611V16.6468ZM376.481 11.4056H360.221V12.765H376.481V11.4056ZM438.28 33.061H418.765V94.3053H438.28V33.061ZM360.221 94.3053H379.736V63.4033H360.221V94.3053ZM11.8352 271.576H15.9038V173.643H11.8352V271.576ZM16.8483 271.576H97.6167V257.204H16.8483V271.576ZM51.8162 173.643H16.8483V188.022H51.8162V173.643ZM154.715 271.67H166.819V267.599H154.715V271.67ZM154.715 266.422H181.822V262.351H154.715V266.422ZM154.715 261.181H173.692V257.117H154.715V261.181ZM154.715 190.014H166.819V185.943H154.715V190.014ZM154.715 184.765H181.822V180.694H154.715V184.765ZM173.692 179.524V175.453H154.715V179.524H173.692ZM238.433 290.927L231.487 298.77L227.317 303.655C225.806 305.509 225.305 308.111 226.285 310.481L236.609 365.539L239.109 367.589C245.48 372.83 254.547 372.22 260.222 366.797L247.936 324.024L254.315 324.373C255.899 324.467 257.475 324.075 258.834 323.254L265.336 319.321C266.172 318.819 266.477 317.751 266.041 316.878C265.663 316.108 264.806 315.693 263.963 315.882L258.078 317.176L263.687 312.677C264.218 312.255 264.508 311.608 264.486 310.939L264.421 308.897C264.392 307.952 263.738 307.137 262.823 306.905L259.815 306.134L263.338 303.299C264.479 302.383 265.038 300.915 264.791 299.461C264.414 297.244 262.307 295.761 260.091 296.153L240.918 299.57L238.433 290.927ZM508.891 362.319L449.752 324.366L432.773 302.325C431.102 300.166 428.581 298.836 425.863 298.676L413.941 297.985C413.171 297.942 412.408 298.182 411.812 298.669L407.933 301.794L394.993 304.113C394.012 304.288 393.257 305.087 393.14 306.076C392.893 308.191 394.572 310.031 396.7 309.972L399.265 309.9L391.324 320.266C390.249 321.676 390.598 323.69 392.08 324.656C392.864 325.173 393.852 325.289 394.746 324.969L408.877 311.543C409.945 310.518 411.478 310.14 412.909 310.532L414.689 311.019L402.694 322.127L402.411 322.534C400.406 325.376 401.219 329.323 404.184 331.141L404.997 331.642C406.814 332.755 409.015 333.045 411.057 332.435L419.84 329.81C420.872 329.498 421.976 329.563 422.965 329.985L437.546 336.207L481.109 392.669C489.188 403.136 504.837 403.543 513.454 393.505C521.707 383.887 519.564 369.174 508.891 362.319ZM397.914 245.421C408.659 243.792 419.957 240.267 419.957 240.267C420.022 240.296 420.073 240.347 420.138 240.383L418.889 219.702C427.505 211.073 440.597 193.139 430.477 172.909C422.492 156.945 415.307 152.7 404.779 149.894C390.881 146.201 375.864 148.949 364.639 157.934C360.221 161.467 356.828 165.683 356.414 170.43C356.022 174.966 353.944 183.057 355.811 192.129C357.148 198.628 357.453 210.891 359.422 217.383C363.658 231.303 373.43 237.693 377.426 237.453C378.312 237.395 379.206 237.308 380.106 237.199C380.048 237.373 379.983 237.533 379.925 237.708C379.925 237.708 381.356 239.096 382.133 242.324C383.39 243.312 388.621 246.824 397.914 245.421ZM337.415 598.762C284.691 588.948 232.025 562.648 186.224 526.228L194.87 522.615L227.782 512.635C355.136 515.739 354.286 557.341 337.415 598.762Z" fill="#F1F1F1"/>
<path d="M557.024 195.138L550.166 159.17C543.729 160.391 537.894 163.306 533.136 167.42L527.287 161.569H517.784V156.138H494.201V168.424H517.784V162.921H526.728L532.14 168.336C524.955 175.024 520.436 184.54 520.436 195.138C520.436 215.369 536.819 231.761 557.024 231.761C577.236 231.761 593.612 215.369 593.612 195.138H557.024ZM557.024 158.515C577.098 158.515 593.612 175.046 593.612 195.138C593.612 174.908 577.236 158.515 557.024 158.515ZM119.965 82.1873H129.7L131.822 86.1782C132.229 86.9342 133.318 86.9342 133.718 86.1782L135.839 82.1873H145.575C146.44 82.1873 147.137 81.4894 147.137 80.6316V70.4546C147.137 69.5895 146.44 68.8916 145.575 68.8916H119.965C119.107 68.8916 118.403 69.5895 118.403 70.4546V80.6316C118.403 81.4894 119.107 82.1873 119.965 82.1873ZM237.939 50.6892C237.939 51.0236 238.004 51.3434 238.128 51.6269C238.309 52.0631 238.607 52.4193 238.992 52.681C239.37 52.9354 239.835 53.0881 240.329 53.0881C241.651 53.0881 242.727 52.0122 242.727 50.6892C242.727 49.3662 241.651 48.2903 240.329 48.2903C239.007 48.2903 237.939 49.3662 237.939 50.6892ZM209.03 75.6812L237.067 52.5065C236.769 51.9613 236.58 51.358 236.58 50.6892C236.58 48.6174 238.259 46.9382 240.329 46.9382C242.393 46.9382 244.078 48.6174 244.078 50.6892C244.078 52.761 242.393 54.4474 240.329 54.4474C239.414 54.4474 238.586 54.0985 237.932 53.5533L209.946 76.6844C209.699 76.2991 209.393 75.9575 209.03 75.6812ZM203.843 76.3355L194.507 70.9416C194.325 71.3632 194.071 71.7412 193.759 72.0756L203.203 77.5349C203.349 77.0987 203.559 76.6844 203.843 76.3355ZM130.71 94.2035C130.943 94.6106 131.277 94.9305 131.691 95.1413C132.018 95.3085 132.381 95.4102 132.774 95.4102C133.871 95.4102 134.793 94.6615 135.069 93.6511C135.127 93.4475 135.164 93.2367 135.164 93.0114C135.164 92.7642 135.12 92.5243 135.04 92.299C134.742 91.3249 133.842 90.6197 132.774 90.6197C131.451 90.6197 130.383 91.6956 130.383 93.0114C130.383 93.4475 130.507 93.8546 130.71 94.2035ZM130.732 96.159L109.96 118.142V116.164L129.758 95.214C129.301 94.5961 129.025 93.8401 129.025 93.0114C129.025 90.9469 130.703 89.2604 132.774 89.2604C134.59 89.2604 136.101 90.5616 136.45 92.2699L161.74 91.8555C161.711 92.0373 161.682 92.219 161.682 92.408C161.682 92.6842 161.719 92.9532 161.777 93.2149L136.464 93.6292C136.166 95.4102 134.633 96.7623 132.774 96.7623C132.018 96.7623 131.32 96.537 130.732 96.159ZM168.65 90.5107L188.825 72.5045C188.462 72.2355 188.142 71.9084 187.895 71.5231L167.756 89.493C168.112 89.7692 168.417 90.1181 168.65 90.5107ZM398.887 21.8953H389.493V23.2474H398.887V21.8953ZM404.67 16.6468H389.493V18.0062H404.67V16.6468ZM407.925 11.4056H389.493V12.765H407.925V11.4056ZM457.773 21.8953H448.379V23.2474H457.773V21.8953ZM448.379 18.0062H472.768V16.6468H448.379V18.0062ZM464.638 11.4056H448.379V12.765H464.638V11.4056ZM467.552 39.5962H448.037V94.3053H467.552V39.5962ZM389.493 94.3053H409.008V48.2321H389.493V94.3053ZM180.463 182.054H156.073V183.406H180.463V182.054ZM180.463 202.466H156.073V203.825H180.463V202.466ZM180.463 222.886H156.073V224.238H180.463V222.886ZM180.463 263.71H156.073V265.07H180.463V263.71ZM165.467 268.959H156.073V270.311H165.467V268.959ZM96.2654 258.564H18.2069V270.224H96.2654V258.564ZM14.5452 175.002H13.1938V270.224H14.5452V175.002ZM18.2069 228.439H65.6348V216.779H18.2069V228.439ZM18.2069 207.555H84.343V195.887H18.2069V207.555ZM18.2069 186.67H50.4576V175.002H18.2069V186.67ZM156.073 259.828H172.333V258.469H156.073V259.828ZM156.073 229.486H165.467V228.127H156.073V229.486ZM156.073 218.996H172.333V217.637H156.073V218.996ZM156.073 209.074H165.467V207.714H156.073V209.074ZM156.073 198.577H172.333V197.225H156.073V198.577ZM156.073 188.654H165.467V187.295H156.073V188.654ZM156.073 178.172H172.333V176.812H156.073V178.172ZM194.013 283.287H0V161.75H194.013V283.287ZM191.223 436.583C185.694 436.583 181.153 440.726 179.875 446.287C178.647 451.565 180.943 455.723 186.508 455.723C191.979 455.723 196.556 452.03 197.958 445.953C199.142 440.843 196.977 436.583 191.223 436.583ZM175.733 436.881H164.167L159.895 455.41H171.846L172.638 451.979H164.937L165.954 447.581H172.849L173.634 444.172H166.746L167.632 440.319H174.941L175.733 436.881ZM157.606 437.404C156.945 437.019 155.376 436.583 153.182 436.583C147.508 436.583 142.146 440.101 140.678 446.418C139.458 451.703 141.877 455.687 148.35 455.687C150.632 455.687 152.484 455.279 153.349 454.894L153.458 451.616C152.557 451.95 151.075 452.226 149.789 452.226C146.011 452.226 144.325 449.886 145.19 446.178C146.142 442.049 149.215 440.043 152.579 440.043C154.083 440.043 155.194 440.377 155.972 440.726L157.606 437.404ZM233.064 460.463H103.443L112.743 430.884H246.628L233.064 460.463ZM190.351 439.905C187.481 439.905 185.2 442.602 184.365 446.2C183.529 449.835 184.662 452.394 187.496 452.394C190.358 452.394 192.618 449.697 193.446 446.091C194.216 442.762 193.272 439.905 190.351 439.905ZM459.073 323.195C455.673 323.195 454.351 327.426 456.123 332.653C457.903 337.879 462.11 342.11 465.51 342.11C468.918 342.11 470.24 337.879 468.46 332.653C466.68 327.426 462.481 323.195 459.073 323.195ZM456.407 487.09L458.492 519.519C454.569 535.962 448.066 555.015 437.546 567.3C420.429 587.284 368.039 596.959 346.098 600.223C342.843 599.729 339.595 599.184 336.34 598.566C336.558 562.989 309.48 532.873 273.75 529.681L194.042 522.543C194.042 522.543 246.338 502.283 294.136 487.09H456.407Z" fill="#AED8FF"/>
<path d="M600.122 210.237V215.696H593.881L589.587 211.727C592.152 206.733 593.612 201.099 593.612 195.138C593.612 194.979 593.612 194.826 593.612 194.666L557.024 195.138L541.099 228.112C546.061 230.511 551.51 231.761 557.024 231.761C570.654 231.761 582.627 224.143 588.926 212.963L593.351 217.056H600.122V222.522H623.698V210.237H600.122ZM503.174 237.519H493.78V238.878H503.174V237.519ZM518.176 232.27H493.78V233.63H518.176V232.27ZM510.039 227.036H493.78V228.389H510.039V227.036ZM503.174 217.106H493.78V218.466H503.174V217.106ZM518.176 211.865H493.78V213.217H518.176V211.865ZM510.039 206.617H493.78V207.976H510.039V206.617ZM179.795 115.568V105.398C179.795 104.533 179.097 103.835 178.24 103.835H168.504L166.383 99.8518C165.976 99.0885 164.893 99.0885 164.487 99.8518L162.358 103.835H152.622C151.765 103.835 151.068 104.533 151.068 105.398V115.568C151.068 116.433 151.765 117.131 152.622 117.131H178.24C179.097 117.131 179.795 116.433 179.795 115.568ZM178.24 58.1548H187.975L190.097 62.1384C190.504 62.8944 191.586 62.8944 191.993 62.1384L194.115 58.1548H203.85C204.715 58.1548 205.412 57.457 205.412 56.5919V46.4148C205.412 45.557 204.715 44.8592 203.85 44.8592H178.24C177.375 44.8592 176.678 45.557 176.678 46.4148V56.5919C176.678 57.457 177.375 58.1548 178.24 58.1548ZM193.439 69.5023C193.439 68.1793 192.364 67.1034 191.049 67.1034C189.726 67.1034 188.651 68.1793 188.651 69.5023C188.651 69.9021 188.76 70.2656 188.927 70.6C189.145 71.007 189.472 71.3487 189.872 71.574C190.22 71.7776 190.62 71.9012 191.049 71.9012C191.615 71.9012 192.124 71.6904 192.531 71.3632C192.894 71.0797 193.163 70.6945 193.315 70.2438C193.388 70.0111 193.439 69.764 193.439 69.5023ZM194.797 69.5023C194.797 70.0111 194.696 70.4909 194.507 70.9416C194.325 71.3632 194.071 71.7412 193.759 72.0756C193.076 72.7953 192.117 73.2533 191.049 73.2533C190.213 73.2533 189.45 72.977 188.825 72.5045C188.462 72.2356 188.142 71.9084 187.895 71.5232C187.518 70.9416 187.3 70.2438 187.3 69.5023C187.3 67.4305 188.978 65.744 191.049 65.744C193.112 65.744 194.797 67.4305 194.797 69.5023ZM163.034 92.408C163.034 92.677 163.099 92.9459 163.179 93.1858C163.506 94.1236 164.385 94.8069 165.438 94.8069C166.753 94.8069 167.829 93.731 167.829 92.408C167.829 92.0591 167.749 91.732 167.618 91.4339C167.429 91.0123 167.117 90.6488 166.739 90.4017C166.361 90.1545 165.911 90.0091 165.438 90.0091C164.312 90.0091 163.375 90.7869 163.113 91.8337C163.07 92.0155 163.034 92.2045 163.034 92.408ZM161.777 93.2149C161.719 92.9532 161.682 92.6842 161.682 92.408C161.682 92.219 161.711 92.0373 161.74 91.8555C162.009 90.0527 163.557 88.6498 165.438 88.6498C166.317 88.6498 167.117 88.9769 167.756 89.493C168.112 89.7692 168.417 90.1182 168.65 90.5107C168.984 91.0704 169.18 91.7174 169.18 92.408C169.18 94.4725 167.502 96.159 165.438 96.159C163.644 96.159 162.14 94.8941 161.777 93.2149ZM349.091 94.9814H369.303V97.0822H370.654V94.9814H383.935V97.0822H385.287V94.9814H398.575V97.0822H399.926V94.9814H413.207V97.0822H414.566V94.9814H427.847V97.0822H429.198V94.9814H442.486V97.0822H443.838V94.9814H457.119V97.0822H458.47V94.9814H479.845V93.6293H458.47V91.5357H457.119V93.6293H443.838V91.5357H442.486V93.6293H429.198V91.5357H427.847V93.6293H414.566V91.5357H413.207V93.6293H399.926V91.5357H398.575V93.6293H385.287V91.5357H383.935V93.6293H370.654V91.5357H369.303V93.6293H350.45V85.6766H352.542V84.3172H350.45V73.6167H352.542V72.2574H350.45V61.5569H352.542V60.2048H350.45V49.497H352.542V48.1449H350.45V37.4372H352.542V36.0851H350.45V25.3846H352.542V24.0325H350.45V13.3247H352.542V11.9726H350.45V7.40021H349.091V11.9726H346.998V13.3247H349.091V24.0325H346.998V25.3846H349.091V36.0851H346.998V37.4372H349.091V48.1449H346.998V49.497H349.091V60.2048H346.998V61.5569H349.091V72.2574H346.998V73.6167H349.091V84.3172H346.998V85.6766H349.091V94.9814ZM18.2069 249.339H130.42V237.664H18.2069V249.339ZM165.467 248.546H156.073V249.906H165.467V248.546ZM156.073 244.657H180.463V243.298H156.073V244.657ZM156.073 238.057V239.409H172.333V238.057H156.073ZM422.471 260.105C422.638 260.206 422.863 260.141 422.95 259.967C423.103 259.69 423.168 259.421 423.219 259.145C423.277 258.869 423.27 258.6 423.27 258.324C423.248 258.055 423.226 257.778 423.132 257.517C423.059 257.248 422.972 256.979 422.797 256.71C422.776 256.674 422.739 256.637 422.696 256.615C422.55 256.528 422.362 256.586 422.282 256.724C422.122 257.008 422.049 257.277 421.998 257.553C421.926 257.829 421.926 258.098 421.918 258.367C421.926 258.644 421.947 258.913 422.02 259.181C422.085 259.45 422.173 259.719 422.34 259.988C422.369 260.032 422.412 260.076 422.471 260.105ZM374.665 263.587C374.832 263.645 375.006 263.543 375.064 263.383C375.253 262.809 375.37 262.242 375.493 261.682C375.631 261.122 375.718 260.555 375.827 259.996C375.922 259.436 376.031 258.876 376.103 258.302C376.183 257.728 376.27 257.153 376.299 256.55C376.299 256.463 376.263 256.368 376.183 256.317C376.06 256.23 375.893 256.266 375.805 256.39C375.457 256.899 375.21 257.444 374.999 258.011C374.774 258.571 374.621 259.16 374.498 259.748C374.389 260.337 374.309 260.941 374.309 261.544C374.294 262.147 374.323 262.751 374.454 263.354C374.476 263.463 374.556 263.55 374.665 263.587ZM381.138 256.274C381.131 256.405 381.196 256.528 381.313 256.586C381.472 256.659 381.661 256.594 381.734 256.441C382.155 255.561 382.148 254.515 381.93 253.599C381.719 252.661 381.291 251.818 380.797 251.04C380.295 250.291 379.765 249.593 379.242 248.924C378.726 248.248 378.254 247.565 377.854 246.816C377.811 246.715 377.702 246.656 377.593 246.671C377.447 246.685 377.346 246.816 377.36 246.962C377.469 247.892 377.847 248.757 378.283 249.55C378.704 250.342 379.213 251.054 379.656 251.774C380.106 252.472 380.492 253.199 380.782 253.94C381.066 254.682 381.211 255.452 381.145 256.274H381.138ZM238.694 290.52C237.982 287.663 237.205 284.828 236.464 281.978L234.052 273.488C233.216 270.66 232.366 267.847 231.436 265.048C231.386 264.902 231.233 264.815 231.08 264.844C230.913 264.881 230.804 265.048 230.848 265.208C231.473 268.094 232.178 270.951 232.897 273.807L235.156 282.334C235.97 285.162 236.747 288.004 237.59 290.825C238.433 293.645 239.29 296.459 240.227 299.257C240.235 299.279 240.249 299.286 240.264 299.301C239.334 299.432 238.411 299.577 237.481 299.766C236.522 299.963 235.563 300.173 234.611 300.471C234.502 300.5 234.43 300.588 234.422 300.704C234.415 300.849 234.531 300.973 234.677 300.98C235.672 301.017 236.653 300.966 237.634 300.908C238.615 300.857 239.588 300.74 240.562 300.624C241.535 300.493 242.509 300.362 243.468 300.166C244.434 299.977 245.4 299.781 246.352 299.49C246.468 299.454 246.57 299.337 246.57 299.199C246.577 299.032 246.439 298.887 246.272 298.887C245.277 298.85 244.296 298.908 243.315 298.974C242.436 299.032 241.572 299.134 240.7 299.243C240.714 299.199 240.736 299.163 240.729 299.119C240.111 296.241 239.406 293.377 238.694 290.52ZM344.79 382.746L326.358 382.557C326.358 382.542 326.35 382.528 326.343 382.513H317.828V382.521L304.852 382.477L284.887 382.404C278.385 382.368 271.89 382.39 265.387 382.426L257.454 355.413L253.399 341.689L249.266 327.986C249.222 327.855 249.084 327.775 248.946 327.811C248.815 327.848 248.735 327.993 248.771 328.124L252.586 341.921L256.48 355.697L264.319 383.226C264.392 383.487 264.632 383.684 264.922 383.684C271.577 383.713 278.232 383.749 284.887 383.705L304.852 383.633L317.828 383.589V394.973C317.828 402.831 323.052 409.374 329.518 409.592L331.603 409.664C331.974 404.227 331.327 398.717 329.605 393.425C328.617 390.386 327.607 387.049 326.627 383.546L344.79 383.364C344.95 383.364 345.088 383.226 345.088 383.058C345.095 382.891 344.957 382.746 344.79 382.746ZM346.25 380.616L337.495 350.448L328.61 320.309L326.554 313.345C326.612 312.858 326.67 312.364 326.772 311.877C326.939 311.194 327.048 310.51 327.251 309.827C327.607 308.475 328.021 307.13 328.479 305.8C329.395 303.125 330.368 300.471 331.436 297.847C333.5 292.577 335.788 287.387 337.968 282.138C338.019 282.022 337.975 281.876 337.866 281.818C337.735 281.746 337.575 281.789 337.51 281.913C336.108 284.399 334.836 286.943 333.616 289.524C332.388 292.097 331.276 294.721 330.179 297.353C329.148 300.013 328.152 302.696 327.331 305.436C326.765 307.406 326.241 309.42 326.002 311.484L319.725 290.171C316.789 280.117 313.716 270.115 310.723 260.076C310.65 259.814 310.403 259.632 310.12 259.639L270.444 260.984C257.221 261.406 244.005 261.951 230.783 262.46C230.637 262.467 230.528 262.584 230.536 262.722C230.536 262.86 230.652 262.976 230.797 262.976C244.027 262.663 257.257 262.387 270.48 261.98L309.684 260.868C312.612 270.762 315.474 280.677 318.46 290.549L327.484 320.644L336.515 350.739L345.662 380.79C345.705 380.95 345.88 381.045 346.039 380.994C346.207 380.95 346.294 380.783 346.25 380.616ZM242.647 323.98C244.194 324.177 245.742 324.271 247.289 324.358C248.837 324.46 250.384 324.489 251.932 324.526L254.257 324.547C255.078 324.533 255.913 324.453 256.691 324.242C258.282 323.864 259.72 323.174 261.079 322.396C261.202 322.323 261.261 322.17 261.217 322.032C261.159 321.872 260.984 321.785 260.825 321.836C259.35 322.316 257.911 322.832 256.458 323.072C255.724 323.181 255.005 323.246 254.271 323.217L251.954 323.174C250.406 323.166 248.851 323.159 247.304 323.217C245.756 323.261 244.209 323.319 242.654 323.472C242.531 323.479 242.436 323.573 242.422 323.697C242.4 323.842 242.502 323.966 242.647 323.98ZM248.612 318.732C250.588 318.652 252.535 318.608 254.547 318.354C255.543 318.216 256.56 317.991 257.519 317.569C258.463 317.133 259.357 316.449 259.873 315.541C259.931 315.424 259.909 315.286 259.815 315.206C259.706 315.112 259.539 315.126 259.444 315.243C258.238 316.689 256.291 317.082 254.424 317.22C252.52 317.322 250.53 317.373 248.59 317.373C246.635 317.431 244.681 317.416 242.719 317.431C240.758 317.46 238.796 317.474 236.827 317.583C236.682 317.591 236.558 317.707 236.537 317.852C236.522 318.02 236.638 318.18 236.813 318.194C238.767 318.412 240.736 318.543 242.698 318.638C244.667 318.725 246.635 318.739 248.612 318.732ZM262.692 302.79C262.619 302.667 262.452 302.623 262.329 302.696C260.49 303.823 258.696 305.015 256.909 306.221C255.136 307.392 253.341 308.751 251.634 309.842C249.941 310.852 247.82 311.041 245.713 311.143C243.591 311.245 241.383 311.194 239.225 311.71C239.08 311.746 238.978 311.884 238.992 312.037C239.007 312.211 239.159 312.335 239.327 312.313C241.434 312.139 243.555 312.328 245.735 312.335C247.892 312.342 250.239 312.182 252.31 311.012C253.334 310.365 254.09 309.733 254.991 309.086C255.855 308.446 256.734 307.821 257.57 307.152C259.284 305.843 260.984 304.513 262.641 303.125C262.735 303.037 262.757 302.899 262.692 302.79ZM463.352 333.365C462.931 332.311 462.481 331.279 461.979 330.261C461.71 329.687 461.398 329.142 461.1 328.582C460.81 328.03 460.468 327.484 460.127 326.954C460.061 326.859 459.952 326.816 459.843 326.837C459.698 326.874 459.611 327.019 459.654 327.157C459.807 327.775 459.974 328.393 460.185 328.982C460.395 329.585 460.584 330.181 460.824 330.77C461.282 331.94 461.776 333.096 462.328 334.23L462.357 334.281C462.459 334.492 462.677 334.63 462.917 334.616C464.079 334.557 465.234 334.477 466.397 334.281C466.52 334.259 466.629 334.158 466.651 334.027C466.673 333.852 466.564 333.692 466.397 333.663C465.379 333.496 464.37 333.423 463.352 333.365ZM256.894 529.296C256.851 529.136 256.683 529.034 256.516 529.078C252.324 530.19 248.132 531.331 243.955 532.538L231.451 536.195L219.006 540.033C214.864 541.334 210.73 542.679 206.618 544.067C206.487 544.111 206.415 544.242 206.451 544.38C206.48 544.518 206.625 544.598 206.763 544.562C210.97 543.464 215.162 542.323 219.34 541.131L231.843 537.496L244.303 533.687C248.445 532.393 252.579 531.048 256.691 529.667C256.851 529.616 256.938 529.456 256.894 529.296ZM234.081 458.871C235.2 456.835 236.232 454.763 237.256 452.684C238.28 450.598 239.239 448.497 240.227 446.404C241.165 444.288 242.138 442.18 243.039 440.05C243.947 437.92 244.848 435.783 245.662 433.61C245.706 433.493 245.655 433.355 245.546 433.29C245.415 433.224 245.262 433.261 245.19 433.391C244.071 435.427 243.032 437.499 242.007 439.57C240.969 441.649 240.002 443.75 239 445.837C238.055 447.952 237.082 450.053 236.166 452.183C235.258 454.313 234.35 456.443 233.529 458.616C233.478 458.754 233.529 458.914 233.667 458.987C233.812 459.074 234.008 459.023 234.081 458.871ZM408.892 300.755C407.94 301.424 407.061 302.158 406.182 302.907C405.295 303.634 404.453 304.419 403.61 305.196C402.789 305.996 401.961 306.788 401.169 307.624C400.384 308.46 399.599 309.304 398.887 310.22C398.8 310.321 398.786 310.474 398.873 310.59C398.967 310.728 399.163 310.765 399.301 310.663C400.246 309.987 401.132 309.245 402.004 308.504C402.876 307.755 403.711 306.97 404.547 306.178C405.368 305.378 406.189 304.579 406.966 303.735C407.758 302.892 408.528 302.042 409.248 301.133C409.32 301.038 409.32 300.915 409.255 300.82C409.168 300.704 409.008 300.668 408.892 300.755ZM430.629 326.445C430.746 326.387 430.811 326.249 430.782 326.11C430.738 325.95 430.579 325.841 430.412 325.878C429.423 326.089 428.472 326.372 427.513 326.656C426.561 326.932 425.616 327.244 424.672 327.557C423.742 327.884 422.797 328.204 421.868 328.56C420.938 328.916 420.008 329.273 419.092 329.701C418.998 329.745 418.932 329.854 418.94 329.963C418.961 330.109 419.085 330.218 419.23 330.196C420.24 330.094 421.221 329.883 422.202 329.658C423.095 329.454 423.96 329.2 424.832 328.924C424.832 328.967 424.824 329.004 424.854 329.047C425.122 329.454 425.5 329.774 425.922 330.036C426.336 330.298 426.808 330.457 427.287 330.567C427.774 330.661 428.276 330.69 428.762 330.61C429.249 330.537 429.729 330.392 430.135 330.116C430.215 330.058 430.266 329.978 430.273 329.883C430.295 329.701 430.172 329.542 429.99 329.52H429.976C429.532 329.476 429.126 329.454 428.726 329.411C428.326 329.36 427.934 329.316 427.549 329.236C427.157 329.178 426.779 329.076 426.379 328.982C426.081 328.909 425.769 328.807 425.457 328.713C426.292 328.429 427.113 328.131 427.92 327.782C428.849 327.383 429.758 326.961 430.629 326.445ZM403.784 330.007L409.204 326.532C411.02 325.391 412.822 324.242 414.675 323.181C416.498 322.069 418.366 321.015 420.233 319.975L425.863 316.864C426.001 316.791 426.06 316.631 426.001 316.486C425.943 316.326 425.769 316.246 425.609 316.304C423.582 317.06 421.613 317.954 419.673 318.906C417.734 319.866 415.852 320.935 413.985 322.018C412.147 323.159 410.316 324.315 408.565 325.587C406.807 326.845 405.099 328.168 403.472 329.592C403.385 329.672 403.355 329.818 403.428 329.927C403.508 330.05 403.668 330.087 403.784 330.007ZM516.702 397.903C514.202 400.519 510.955 402.402 507.475 403.456C503.995 404.518 500.231 404.728 496.62 404.001C496.46 403.972 496.308 404.067 496.264 404.22C496.213 404.38 496.308 404.554 496.475 404.605C500.129 405.673 504.104 405.615 507.809 404.612C511.514 403.609 514.965 401.617 517.675 398.848C520.342 396.042 522.223 392.523 523.095 388.787C523.967 385.05 523.894 381.081 522.703 377.468C522.659 377.345 522.528 377.265 522.398 377.294C522.26 377.33 522.172 377.468 522.209 377.606C523.044 381.212 522.942 384.985 521.983 388.503C521.024 392.022 519.252 395.322 516.702 397.903ZM439.929 277.522C440.321 277.064 440.772 276.65 441.186 276.206C441.644 275.806 442.094 275.392 442.581 275.014C443.518 274.236 444.564 273.553 445.625 272.964L445.647 272.957C445.756 272.891 445.807 272.753 445.763 272.637C445.705 272.499 445.56 272.441 445.422 272.492C443.031 273.437 440.895 274.905 439.094 276.737C437.292 278.576 435.853 280.815 434.996 283.265C434.727 283.868 434.654 284.522 434.48 285.148L434.255 286.085L434.146 287.052C434.088 287.699 433.986 288.339 433.964 288.979C433.979 289.626 434.008 290.265 434.037 290.912C434.037 291.552 434.146 292.184 434.269 292.809L434.604 294.7C434.938 295.921 435.345 297.127 435.744 298.327C435.795 298.472 435.94 298.552 436.086 298.53C436.26 298.494 436.362 298.334 436.34 298.174L436.325 298.131C436.1 296.909 435.781 295.717 435.57 294.503L435.352 292.679C435.272 292.068 435.207 291.465 435.236 290.854C435.112 288.412 435.519 285.998 436.275 283.716C436.994 281.411 438.331 279.347 439.929 277.522ZM377.389 270.078C378.225 270.798 379.271 271.22 380.303 271.488C382.381 271.954 384.437 272.099 386.529 272.186C390.692 272.332 394.848 271.837 398.924 271.031C402.985 270.165 406.959 268.966 410.839 267.534C414.718 266.124 418.504 264.481 422.267 262.816C422.412 262.751 422.485 262.584 422.434 262.431C422.369 262.271 422.194 262.184 422.035 262.242C418.162 263.645 414.319 265.091 410.439 266.407C406.559 267.716 402.643 268.901 398.648 269.707C394.666 270.573 390.612 271.045 386.544 271.045C384.531 271.038 382.453 270.951 380.506 270.602C379.533 270.413 378.595 270.093 377.832 269.526C377.062 268.959 376.452 268.137 376.292 267.2C376.27 267.061 376.147 266.967 376.009 266.981C375.864 266.996 375.769 267.12 375.776 267.265C375.893 268.384 376.546 269.38 377.389 270.078ZM374.331 224.979C374.665 225.11 375.006 225.161 375.362 225.212C375.711 225.234 376.06 225.248 376.408 225.183C376.757 225.139 377.099 225.059 377.44 224.885C377.506 224.848 377.564 224.79 377.593 224.71C377.665 224.536 377.585 224.339 377.411 224.267C377.077 224.121 376.75 224.056 376.43 223.983C376.111 223.911 375.791 223.889 375.471 223.86C375.152 223.845 374.832 223.823 374.498 223.845C374.171 223.867 373.837 223.889 373.481 223.983C373.422 223.998 373.364 224.034 373.321 224.085C373.226 224.209 373.248 224.39 373.372 224.492C373.669 224.725 373.996 224.863 374.331 224.979ZM387.822 218.64C387.939 218.56 387.989 218.4 387.931 218.262C387.866 218.102 387.691 218.03 387.532 218.095C386.071 218.691 384.604 219.193 383.1 219.564C381.596 219.92 380.07 220.189 378.537 220.305C376.997 220.436 375.457 220.421 373.909 220.305C372.362 220.181 370.829 219.92 369.296 219.571C369.172 219.542 369.049 219.6 368.998 219.709C368.94 219.84 368.998 220 369.121 220.058C370.589 220.741 372.166 221.177 373.771 221.446C375.377 221.715 377.019 221.766 378.639 221.657C380.266 221.519 381.879 221.228 383.434 220.719C384.974 220.21 386.471 219.534 387.822 218.64ZM362.808 188.989C361.711 188.989 360.824 190.37 360.824 192.064C360.824 193.765 361.711 195.138 362.808 195.138C363.905 195.138 364.798 193.765 364.798 192.064C364.798 190.37 363.905 188.989 362.808 188.989ZM382.911 188.989C381.814 188.989 380.927 190.37 380.927 192.064C380.927 193.765 381.814 195.138 382.911 195.138C384.008 195.138 384.902 193.765 384.902 192.064C384.902 190.37 384.008 188.989 382.911 188.989ZM450.914 356.206C451.285 356.685 451.96 356.773 452.433 356.409C454.423 354.919 459.269 350.732 462.059 343.935C462.488 344.058 462.917 344.117 463.331 344.117C464.195 344.117 464.922 343.84 465.496 343.353V343.361L467.515 341.471C466.971 341.878 466.295 342.11 465.51 342.11C462.11 342.11 457.903 337.879 456.123 332.653C454.801 328.756 455.201 325.405 456.901 323.959L454.714 325.972C453.021 327.426 452.622 330.763 453.944 334.659C454.22 335.459 454.554 336.237 454.932 336.978C453.799 339.188 450.929 344.117 446.01 348.064C445.538 348.435 445.443 349.111 445.807 349.583L450.914 356.206ZM429.54 276.49C427.905 275.545 425.813 276.112 424.868 277.747L413.149 298.051C413.411 298.007 413.672 297.971 413.941 297.985L420.858 298.385L430.797 281.171C431.734 279.536 431.174 277.442 429.54 276.49ZM402.643 322.199C402.745 322.294 402.905 322.301 402.999 322.199C404.365 320.869 405.717 319.539 407.104 318.252C408.507 316.987 409.894 315.708 411.369 314.523C412.088 313.912 412.815 313.309 413.556 312.728C414.239 312.146 415.002 311.826 415.859 311.528C417.574 310.983 419.543 310.867 421.388 310.161C421.526 310.103 421.613 309.958 421.577 309.813C421.548 309.645 421.381 309.536 421.214 309.573C419.397 309.943 417.494 309.9 415.532 310.372C414.827 310.532 414.101 310.83 413.462 311.215L413.723 310.758L412.909 310.532C411.478 310.14 409.945 310.518 408.877 311.543L401.125 318.906L389.74 338.643L388.367 346.428C388.287 346.864 388.781 347.162 389.13 346.908L395.669 342.059L402.723 329.84C401.031 327.804 400.798 324.824 402.411 322.534L402.643 322.199ZM355.07 182.919L362.503 183.697C362.408 183.653 362.306 183.602 362.212 183.558C360.766 182.926 359.19 182.628 357.591 183.035C357.453 183.079 357.308 182.999 357.264 182.861C357.235 182.752 357.279 182.642 357.366 182.577C358.114 182.017 359.081 181.777 360.018 181.763C360.962 181.734 361.892 181.959 362.757 182.315C363.6 182.686 364.377 183.173 365.06 183.747C365.365 183.995 365.656 184.264 365.939 184.533C367.029 185.223 367.734 186.357 367.734 187.637V189.701C369.63 188.967 371.744 189.156 373.495 190.232V188.974C373.495 187.956 373.938 186.997 374.73 186.284C375.653 185.448 376.924 185.049 378.218 185.187L388.331 186.241C387.989 186.023 387.648 185.79 387.277 185.594C385.229 184.503 382.773 184.016 380.506 184.874C380.375 184.932 380.223 184.867 380.172 184.729C380.128 184.62 380.172 184.496 380.259 184.423C381.334 183.638 382.729 183.319 384.066 183.362C385.41 183.391 386.725 183.784 387.917 184.394C389.086 185.02 390.133 185.834 391.041 186.742C391.956 187.651 392.77 188.618 393.511 189.643C393.62 189.781 393.584 189.977 393.446 190.072C393.329 190.152 393.17 190.152 393.068 190.057C392.792 189.832 392.523 189.599 392.261 189.367C392.305 189.592 392.334 189.817 392.334 190.057V192.631L397.696 191.184C396.076 186.502 394.841 183.566 394.841 183.566L390.866 173.439V183.566C390.866 183.566 390.866 183.566 380.746 178.499C370.625 173.439 367.007 162.586 367.007 162.586V178.499C362.43 177.278 358.855 174.632 356.24 171.986C355.869 174.806 355.194 178.601 355.07 182.919ZM390.975 190.057C390.975 188.821 389.893 187.775 388.447 187.622L378.072 186.539C377.157 186.444 376.27 186.713 375.631 187.288C375.13 187.746 374.854 188.342 374.854 188.974V195.858C374.854 197.094 375.936 198.141 377.375 198.293L387.75 199.377C388.665 199.471 389.551 199.202 390.191 198.628C390.699 198.163 390.975 197.574 390.975 196.941V190.057ZM365.59 196.207C366.099 195.749 366.382 195.153 366.382 194.528V187.637C366.382 186.401 365.293 185.354 363.847 185.201L355.056 184.285C355.063 186.764 355.245 189.388 355.811 192.129C356.058 193.328 356.269 194.731 356.458 196.258L363.149 196.956C364.065 197.05 364.958 196.774 365.59 196.207ZM343.947 240.318C343.947 240.318 343.264 225.961 343.947 193.437C344.325 175.569 348.662 160.776 352.498 151.057C353.399 147.96 354.663 145.162 356.225 142.654C357.562 139.971 358.456 138.525 358.456 138.525H359.306C374.229 121.464 405.891 121.667 428.813 134.367C469.288 156.8 450.493 226.608 450.493 226.608C436.398 237.097 404.235 243.247 404.235 243.247C404.235 243.247 405.593 238.159 405.317 228.716C404.598 229.413 403.842 230.06 403.043 230.671C401.234 232.023 399.243 233.106 397.209 234.037C395.138 234.909 393.024 235.651 390.881 236.239C388.73 236.821 386.573 237.301 384.393 237.701C384.255 237.73 384.117 237.635 384.088 237.497C384.059 237.366 384.139 237.243 384.262 237.199L390.547 235.142C392.625 234.437 394.688 233.717 396.657 232.801C398.655 231.943 400.558 230.896 402.346 229.69C403.37 228.999 404.336 228.229 405.266 227.407C405.128 224.303 404.823 220.785 404.235 216.845C402.876 207.7 400.26 198.773 398.139 192.471L392.334 194.034V196.941C392.334 197.959 391.891 198.911 391.099 199.631C390.292 200.358 389.232 200.75 388.106 200.75C387.939 200.75 387.779 200.743 387.612 200.729L377.237 199.638C375.108 199.413 373.495 197.792 373.495 195.858V191.875L373.284 191.707C371.671 190.457 369.528 190.275 367.734 191.191V194.528C367.734 194.826 367.683 195.117 367.61 195.407C368.061 194.891 368.511 194.382 369.005 193.903C369.136 193.786 369.325 193.794 369.448 193.917C369.543 194.026 369.557 194.193 369.47 194.31L369.463 194.317C368.373 195.8 367.305 197.305 366.39 198.875C365.51 200.416 364.61 202.124 364.646 203.687C364.653 204.065 364.733 204.4 364.9 204.683C364.98 204.829 365.096 204.945 365.213 205.068L365.714 205.454C366.404 205.948 367.203 206.297 368.024 206.573C369.703 207.075 371.555 207.177 373.35 207.002H373.372C373.51 206.988 373.633 207.097 373.648 207.235C373.662 207.366 373.575 207.475 373.459 207.511C371.613 208.02 369.659 208.107 367.734 207.671C366.767 207.467 365.837 207.06 364.995 206.508L364.377 206.05C364.159 205.854 363.956 205.643 363.789 205.388C363.462 204.879 363.324 204.291 363.287 203.738C363.266 202.626 363.607 201.666 363.985 200.765C364.377 199.871 364.828 199.028 365.372 198.242C365.489 198.068 365.627 197.908 365.75 197.741C365.082 198.126 364.312 198.337 363.513 198.337C363.345 198.337 363.178 198.322 363.011 198.308L356.632 197.639C357.388 204.182 357.918 212.454 359.422 217.383C362.103 226.193 366.993 231.972 371.243 234.982C352.615 236.763 343.947 240.318 343.947 240.318ZM540.103 492.586L545.857 476.739H539.122L540.103 492.586ZM469.463 476.739L475.696 576.874C494.281 565.41 510.817 550.603 525.362 533.221L528.479 524.636L525.398 476.739H469.463ZM475.696 576.888V576.874C475.449 577.027 475.202 577.179 474.955 577.332C475.202 577.179 475.456 577.041 475.696 576.888ZM397.107 476.739C378.813 513.492 368.845 576.772 366.041 596.741C358.289 598.297 351.365 599.438 346.156 600.209C352.535 601.183 358.921 601.902 365.285 602.375C365.496 602.389 365.714 602.404 365.932 602.411C369.87 602.695 373.807 602.884 377.731 602.956C379.133 602.985 380.528 603 381.93 603C412.016 603 438.876 596.247 462.648 584.216L455.738 476.739H397.107ZM532.983 448.134C503.551 447.916 453.217 447.857 425.013 449.631C418.562 450.038 412.677 454.036 407.33 460.463H548.727C546.954 453.608 540.808 448.192 532.983 448.134ZM294.136 487.09L299.745 476.739H179.112C173.336 485.963 168.09 496.453 163.513 506.812C170.866 513.558 178.458 520.028 186.246 526.221L194.87 522.616L194.042 522.543C194.042 522.543 246.338 502.283 294.136 487.09ZM254.489 446.302C254.351 446.004 254.228 445.699 254.082 445.4C252.949 442.936 251.837 440.45 250.668 438L247.159 430.636V430.629C247.057 430.426 246.861 430.295 246.628 430.295L189.661 430.629C189.523 430.629 189.407 430.738 189.407 430.884C189.407 431.029 189.516 431.145 189.661 431.145L246.243 431.48L249.462 438.56C250.573 441.039 251.765 443.481 252.913 445.946C254.061 448.41 255.252 450.86 256.444 453.295C257.621 455.752 258.878 458.165 260.098 460.593C260.171 460.739 260.345 460.804 260.498 460.739C260.607 460.688 260.65 460.579 260.658 460.463H308.565L315.83 447.043C314.363 446.534 312.837 446.244 311.297 446.222C296.061 446.084 274.752 446.004 254.489 446.302ZM321.09 277.362L326.212 273.379C324.229 274.156 322.471 275.545 321.09 277.362ZM511.536 282.204C511.536 273.597 505.317 266.829 497.696 267.083L450.609 268.653C456.08 273.408 460.519 279.296 463.563 285.94L511.536 350.979V282.204ZM497.696 415.196L450.384 413.619C451.285 396.957 453.196 380.354 456.109 363.896C457.794 365.518 459.56 367.066 461.434 368.527L487.386 399.909C492.893 406.56 501.248 409.555 509.291 408.479C506.821 412.667 502.549 415.356 497.696 415.196Z" fill="#1D253C"/>
</svg>
