<svg width="211" height="29" viewBox="0 0 211 29" fill="none" xmlns="http://www.w3.org/2000/svg">
<path d="M47.9275 5.79431V22H45.2693V14.9115H37.6445V22H34.9863V5.79431H37.6445V12.7429H45.2693V5.79431H47.9275ZM62.0131 9.15204V22H59.355V20.4844C58.9352 21.0129 58.3834 21.4326 57.6994 21.7435C57.031 22.0389 56.3159 22.1865 55.5542 22.1865C54.5438 22.1865 53.6344 21.9767 52.826 21.557C52.0332 21.1373 51.4037 20.5155 50.9373 19.6916C50.4865 18.8677 50.2611 17.8728 50.2611 16.7069V9.15204H52.896V16.3105C52.896 17.4609 53.1836 18.3469 53.7587 18.9687C54.3339 19.575 55.1189 19.8781 56.1138 19.8781C57.1087 19.8781 57.8937 19.575 58.4689 18.9687C59.0596 18.3469 59.355 17.4609 59.355 16.3105V9.15204H62.0131ZM67.1293 11.0641C67.5802 10.4423 68.1942 9.93706 68.9714 9.54843C69.7642 9.14426 70.6425 8.94218 71.6063 8.94218C72.7411 8.94218 73.7671 9.21422 74.6842 9.75829C75.6014 10.3024 76.3242 11.0796 76.8528 12.09C77.3813 13.0849 77.6456 14.2275 77.6456 15.5177C77.6456 16.808 77.3813 17.9661 76.8528 18.992C76.3242 20.0025 75.5936 20.7953 74.6609 21.3704C73.7438 21.93 72.7256 22.2099 71.6063 22.2099C70.6114 22.2099 69.7254 22.0155 68.9481 21.6269C68.1864 21.2383 67.5802 20.7409 67.1293 20.1346V22H64.4711V4.74502H67.1293V11.0641ZM74.9407 15.5177C74.9407 14.6317 74.7542 13.87 74.3811 13.2326C74.0236 12.5797 73.5417 12.09 72.9354 11.7636C72.3447 11.4216 71.7074 11.2506 71.0234 11.2506C70.3549 11.2506 69.7176 11.4216 69.1113 11.7636C68.5206 12.1056 68.0387 12.603 67.6657 13.2559C67.3081 13.9088 67.1293 14.6783 67.1293 15.5644C67.1293 16.4504 67.3081 17.2277 67.6657 17.8961C68.0387 18.549 68.5206 19.0464 69.1113 19.3884C69.7176 19.7304 70.3549 19.9014 71.0234 19.9014C71.7074 19.9014 72.3447 19.7304 72.9354 19.3884C73.5417 19.0309 74.0236 18.5179 74.3811 17.8495C74.7542 17.181 74.9407 16.4038 74.9407 15.5177ZM83.3467 13.8622C83.3467 12.2766 83.712 10.8542 84.4426 9.59507C85.1888 8.33592 86.1914 7.35659 87.4506 6.65706C88.7253 5.94199 90.1166 5.58445 91.6244 5.58445C93.3499 5.58445 94.8811 6.01194 96.218 6.86692C97.5704 7.70635 98.5497 8.90332 99.156 10.4578H95.9615C95.5418 9.60284 94.9588 8.9655 94.2127 8.54578C93.4665 8.12606 92.6038 7.91621 91.6244 7.91621C90.5518 7.91621 89.5958 8.15715 88.7564 8.63905C87.9169 9.12095 87.2563 9.8127 86.7744 10.7143C86.308 11.6159 86.0748 12.6652 86.0748 13.8622C86.0748 15.0591 86.308 16.1084 86.7744 17.01C87.2563 17.9117 87.9169 18.6112 88.7564 19.1086C89.5958 19.5905 90.5518 19.8315 91.6244 19.8315C92.6038 19.8315 93.4665 19.6216 94.2127 19.2019C94.9588 18.7822 95.5418 18.1448 95.9615 17.2899H99.156C98.5497 18.8444 97.5704 20.0413 96.218 20.8808C94.8811 21.7202 93.3499 22.1399 91.6244 22.1399C90.101 22.1399 88.7097 21.7901 87.4506 21.0906C86.1914 20.3755 85.1888 19.3884 84.4426 18.1293C83.712 16.8701 83.3467 15.4478 83.3467 13.8622ZM106.791 22.2099C105.579 22.2099 104.483 21.9378 103.503 21.3937C102.524 20.8341 101.754 20.0569 101.195 19.062C100.635 18.0516 100.355 16.8857 100.355 15.5644C100.355 14.2586 100.643 13.1005 101.218 12.09C101.793 11.0796 102.578 10.3024 103.573 9.75829C104.568 9.21422 105.68 8.94218 106.908 8.94218C108.136 8.94218 109.247 9.21422 110.242 9.75829C111.237 10.3024 112.022 11.0796 112.597 12.09C113.172 13.1005 113.46 14.2586 113.46 15.5644C113.46 16.8701 113.164 18.0282 112.574 19.0387C111.983 20.0491 111.175 20.8341 110.149 21.3937C109.138 21.9378 108.019 22.2099 106.791 22.2099ZM106.791 19.9014C107.475 19.9014 108.112 19.7382 108.703 19.4118C109.309 19.0853 109.799 18.5956 110.172 17.9427C110.545 17.2899 110.732 16.4971 110.732 15.5644C110.732 14.6317 110.553 13.8466 110.195 13.2093C109.838 12.5564 109.364 12.0667 108.773 11.7403C108.182 11.4138 107.545 11.2506 106.861 11.2506C106.177 11.2506 105.54 11.4138 104.949 11.7403C104.374 12.0667 103.915 12.5564 103.573 13.2093C103.231 13.8466 103.06 14.6317 103.06 15.5644C103.06 16.9479 103.41 18.0205 104.11 18.7822C104.825 19.5283 105.718 19.9014 106.791 19.9014ZM130.591 8.94218C131.602 8.94218 132.503 9.15204 133.296 9.57175C134.104 9.99147 134.734 10.6133 135.185 11.4372C135.651 12.261 135.884 13.2559 135.884 14.4218V22H133.249V14.8182C133.249 13.6679 132.962 12.7896 132.387 12.1833C131.811 11.5615 131.026 11.2506 130.031 11.2506C129.037 11.2506 128.244 11.5615 127.653 12.1833C127.078 12.7896 126.79 13.6679 126.79 14.8182V22H124.155V14.8182C124.155 13.6679 123.868 12.7896 123.293 12.1833C122.718 11.5615 121.933 11.2506 120.938 11.2506C119.943 11.2506 119.15 11.5615 118.559 12.1833C117.984 12.7896 117.697 13.6679 117.697 14.8182V22H115.038V9.15204H117.697V10.621C118.132 10.0925 118.684 9.68057 119.352 9.38521C120.021 9.08986 120.736 8.94218 121.497 8.94218C122.523 8.94218 123.44 9.15981 124.249 9.59507C125.057 10.0303 125.679 10.6599 126.114 11.4838C126.503 10.7065 127.109 10.0925 127.933 9.6417C128.757 9.17535 129.643 8.94218 130.591 8.94218ZM140.876 11.0408C141.326 10.45 141.94 9.95261 142.718 9.54843C143.495 9.14426 144.373 8.94218 145.353 8.94218C146.472 8.94218 147.49 9.22199 148.407 9.78161C149.34 10.3257 150.07 11.0952 150.599 12.09C151.128 13.0849 151.392 14.2275 151.392 15.5177C151.392 16.808 151.128 17.9661 150.599 18.992C150.07 20.0025 149.34 20.7953 148.407 21.3704C147.49 21.93 146.472 22.2099 145.353 22.2099C144.373 22.2099 143.503 22.0155 142.741 21.6269C141.979 21.2227 141.358 20.7253 140.876 20.1346V28.1092H138.217V9.15204H140.876V11.0408ZM148.687 15.5177C148.687 14.6317 148.5 13.87 148.127 13.2326C147.77 12.5797 147.288 12.09 146.682 11.7636C146.091 11.4216 145.454 11.2506 144.77 11.2506C144.101 11.2506 143.464 11.4216 142.858 11.7636C142.267 12.1056 141.785 12.603 141.412 13.2559C141.054 13.9088 140.876 14.6783 140.876 15.5644C140.876 16.4504 141.054 17.2277 141.412 17.8961C141.785 18.549 142.267 19.0464 142.858 19.3884C143.464 19.7304 144.101 19.9014 144.77 19.9014C145.454 19.9014 146.091 19.7304 146.682 19.3884C147.288 19.0309 147.77 18.5179 148.127 17.8495C148.5 17.181 148.687 16.4038 148.687 15.5177ZM152.085 15.5177C152.085 14.2275 152.349 13.0849 152.878 12.09C153.422 11.0952 154.153 10.3257 155.07 9.78161C156.002 9.22199 157.028 8.94218 158.148 8.94218C159.158 8.94218 160.036 9.14426 160.783 9.54843C161.544 9.93706 162.151 10.4267 162.601 11.0174V9.15204H165.283V22H162.601V20.088C162.151 20.6942 161.537 21.1994 160.759 21.6036C159.982 22.0078 159.096 22.2099 158.101 22.2099C156.997 22.2099 155.987 21.93 155.07 21.3704C154.153 20.7953 153.422 20.0025 152.878 18.992C152.349 17.9661 152.085 16.808 152.085 15.5177ZM162.601 15.5644C162.601 14.6783 162.415 13.9088 162.042 13.2559C161.684 12.603 161.21 12.1056 160.619 11.7636C160.029 11.4216 159.391 11.2506 158.707 11.2506C158.023 11.2506 157.386 11.4216 156.795 11.7636C156.205 12.09 155.723 12.5797 155.35 13.2326C154.992 13.87 154.813 14.6317 154.813 15.5177C154.813 16.4038 154.992 17.181 155.35 17.8495C155.723 18.5179 156.205 19.0309 156.795 19.3884C157.402 19.7304 158.039 19.9014 158.707 19.9014C159.391 19.9014 160.029 19.7304 160.619 19.3884C161.21 19.0464 161.684 18.549 162.042 17.8961C162.415 17.2277 162.601 16.4504 162.601 15.5644ZM174.207 8.94218C175.218 8.94218 176.119 9.15204 176.912 9.57175C177.72 9.99147 178.35 10.6133 178.801 11.4372C179.252 12.261 179.477 13.2559 179.477 14.4218V22H176.842V14.8182C176.842 13.6679 176.555 12.7896 175.979 12.1833C175.404 11.5615 174.619 11.2506 173.624 11.2506C172.629 11.2506 171.837 11.5615 171.246 12.1833C170.671 12.7896 170.383 13.6679 170.383 14.8182V22H167.725V9.15204H170.383V10.621C170.818 10.0925 171.37 9.68057 172.039 9.38521C172.723 9.08986 173.446 8.94218 174.207 8.94218ZM183.171 7.44986C182.689 7.44986 182.285 7.28663 181.958 6.96019C181.632 6.63374 181.469 6.22957 181.469 5.74768C181.469 5.26578 181.632 4.86161 181.958 4.53516C182.285 4.20872 182.689 4.0455 183.171 4.0455C183.637 4.0455 184.034 4.20872 184.36 4.53516C184.687 4.86161 184.85 5.26578 184.85 5.74768C184.85 6.22957 184.687 6.63374 184.36 6.96019C184.034 7.28663 183.637 7.44986 183.171 7.44986ZM184.477 9.15204V22H181.818V9.15204H184.477ZM198.693 15.2612C198.693 15.7431 198.662 16.1784 198.599 16.567H188.783C188.86 17.593 189.241 18.4169 189.925 19.0387C190.609 19.6605 191.449 19.9714 192.444 19.9714C193.874 19.9714 194.884 19.3729 195.475 18.1759H198.343C197.954 19.3573 197.247 20.3289 196.221 21.0906C195.211 21.8368 193.951 22.2099 192.444 22.2099C191.216 22.2099 190.112 21.9378 189.133 21.3937C188.169 20.8341 187.407 20.0569 186.847 19.062C186.303 18.0516 186.031 16.8857 186.031 15.5644C186.031 14.243 186.296 13.0849 186.824 12.09C187.368 11.0796 188.122 10.3024 189.086 9.75829C190.065 9.21422 191.184 8.94218 192.444 8.94218C193.656 8.94218 194.737 9.20644 195.685 9.73497C196.633 10.2635 197.371 11.0097 197.9 11.9735C198.428 12.9217 198.693 14.0176 198.693 15.2612ZM195.918 14.4218C195.902 13.4425 195.553 12.6574 194.869 12.0667C194.185 11.476 193.337 11.1807 192.327 11.1807C191.41 11.1807 190.625 11.476 189.972 12.0667C189.319 12.6419 188.93 13.4269 188.806 14.4218H195.918ZM204.923 22.2099C203.912 22.2099 203.003 22.0311 202.195 21.6736C201.402 21.3005 200.772 20.803 200.306 20.1812C199.84 19.5439 199.591 18.8366 199.56 18.0593H202.311C202.358 18.6034 202.614 19.062 203.081 19.4351C203.563 19.7926 204.161 19.9714 204.876 19.9714C205.622 19.9714 206.198 19.8315 206.602 19.5517C207.021 19.2563 207.231 18.8832 207.231 18.4324C207.231 17.9505 206.998 17.593 206.532 17.3598C206.081 17.1266 205.358 16.8701 204.363 16.5903C203.399 16.3261 202.614 16.0696 202.008 15.8209C201.402 15.5721 200.873 15.1913 200.423 14.6783C199.987 14.1653 199.77 13.4891 199.77 12.6497C199.77 11.9657 199.972 11.3439 200.376 10.7843C200.78 10.2091 201.355 9.75829 202.101 9.43185C202.863 9.1054 203.734 8.94218 204.713 8.94218C206.174 8.94218 207.348 9.31526 208.234 10.0614C209.136 10.792 209.617 11.7947 209.68 13.0694H207.021C206.975 12.4942 206.742 12.0356 206.322 11.6936C205.902 11.3517 205.335 11.1807 204.62 11.1807C203.92 11.1807 203.384 11.3128 203.011 11.5771C202.638 11.8413 202.451 12.1911 202.451 12.6263C202.451 12.9683 202.576 13.2559 202.824 13.4891C203.073 13.7223 203.376 13.9088 203.734 14.0487C204.091 14.1731 204.62 14.3363 205.319 14.5384C206.252 14.7871 207.014 15.0436 207.604 15.3079C208.211 15.5566 208.731 15.9297 209.167 16.4271C209.602 16.9245 209.827 17.5852 209.843 18.4091C209.843 19.1397 209.641 19.7926 209.237 20.3678C208.832 20.9429 208.257 21.3937 207.511 21.7202C206.781 22.0466 205.918 22.2099 204.923 22.2099Z" fill="#1D253C"/>
<path d="M10.6872 27.2038L2.4911 17.5377C2.37722 17.3926 2.26451 17.2465 2.153 17.0995C0.752955 15.2553 -0.0033822 13.0027 1.13701e-05 10.6872C1.13701e-05 7.85278 1.12598 5.13445 3.13022 3.13021C5.13446 1.12597 7.85279 0 10.6872 0C13.5216 0 16.24 1.12597 18.2442 3.13021C20.2484 5.13445 21.3744 7.85278 21.3744 10.6872C21.3778 13.0016 20.6218 15.2532 19.2224 17.0966L19.2214 17.0995C19.2214 17.0995 18.93 17.4823 18.8862 17.5338L10.6872 27.2038ZM3.70361 15.9288C3.70556 15.9288 3.93096 16.228 3.98245 16.2922L10.6872 24.1997L17.4007 16.2815C17.4435 16.228 17.6708 15.9268 17.6718 15.9259C18.8155 14.4191 19.4335 12.5789 19.4313 10.6872C19.4313 8.36813 18.51 6.14404 16.8702 4.50421C15.2304 2.86438 13.0063 1.94313 10.6872 1.94313C8.36814 1.94313 6.14405 2.86438 4.50422 4.50421C2.86439 6.14404 1.94314 8.36813 1.94314 10.6872C1.9411 12.58 2.55987 14.4213 3.70458 15.9288H3.70361Z" fill="#1D253C"/>
<path d="M15.545 15.545H13.6019V7.77253H7.77253V15.545H5.82941V7.77253C5.82992 7.25734 6.03481 6.7634 6.3991 6.3991C6.7634 6.03481 7.25734 5.82992 7.77253 5.82941H13.6019C14.1171 5.82992 14.6111 6.03481 14.9754 6.3991C15.3396 6.7634 15.5445 7.25734 15.545 7.77253V15.545Z" fill="#1D253C"/>
<path d="M9.71558 13.6019H11.6587V15.545H9.71558V13.6019ZM9.71558 9.71564H11.6587V11.6588H9.71558V9.71564Z" fill="#1D253C"/>
</svg>
